<svg xmlns="http://www.w3.org/2000/svg" viewBox="0 0 66.21 66.21"><g id="Layer_2" data-name="Layer 2"><g id="Layer_1-2" data-name="Layer 1"><circle cx="33.11" cy="33.11" r="31.13" style="fill:#e4e5e6"/><path d="M9.7,56.52A33.1,33.1,0,0,1,9.7,9.7,33.1,33.1,0,0,1,66.21,33.11,33.11,33.11,0,0,1,9.7,56.52ZM4,33.11A29.16,29.16,0,1,0,33.11,4,29.19,29.19,0,0,0,4,33.11Z" style="fill:#231f20"/><path d="M33.11,3.08a30,30,0,1,1-21.23,8.8,29.92,29.92,0,0,1,21.23-8.8Zm7.3,42.53a10.26,10.26,0,0,1-.83-1.6c-.28-.63-.54-1.31-.75-1.88l-.25.24A8.17,8.17,0,0,1,28,42.81l-.28.41a16.12,16.12,0,0,1-1.9,2.42c2.81,6.3,11.7,6.08,14.63,0ZM17.85,55.77a27.29,27.29,0,0,0,30,.32l1-7.41a25.37,25.37,0,0,1-7.77-2.37C38,53.73,27,52.92,25,46.13a23.8,23.8,0,0,1-7.81,2.57l.66,7.07ZM55,49.4a27.32,27.32,0,1,0-43.86,0l.12-.07C14.22,47.71,21.83,47.17,25,45l.06-.08a15.33,15.33,0,0,0,1.77-2.28l.36-.52a23,23,0,0,1-3.33-4.59L21.1,33l0-.08h0a5.34,5.34,0,0,1-.65-3.25,1.71,1.71,0,0,1,1.25-1.3h0l-.14-6.19a9.26,9.26,0,0,1,2.33-5.84C26.49,13.5,32.62,10,36.4,10.43c.79.09-.62,2.51.14,2.72a13,13,0,0,1,3.38,1.5,9.12,9.12,0,0,1,4,5.13,8.32,8.32,0,0,1,.3,1.55,61.47,61.47,0,0,1-.12,6.81,3.14,3.14,0,0,1,.58.29,2.23,2.23,0,0,1,.82,1,2.75,2.75,0,0,1,.24,1.24,7,7,0,0,1-1.36,3.46L42,37.88a27.36,27.36,0,0,1-2.36,3.36c.21.62.54,1.52.9,2.34a9.94,9.94,0,0,0,.72,1.4c3.15,2.19,10.73,2.73,13.64,4.35l.12.07ZM42.75,29.25h0a5.55,5.55,0,0,1-.83,0l.52-4.8c-7.21-3-12.32,2.09-19.14,1l.92,4.07a3.12,3.12,0,0,1-.74,0,.68.68,0,0,1-.21,0l-.37,0h-.33c-.5,0-.8.15-.86.42a4.25,4.25,0,0,0,.56,2.36L25,36.8a21.09,21.09,0,0,0,3.3,4.5,6.78,6.78,0,0,0,4.84,1.92,6.56,6.56,0,0,0,4.57-1.85,20,20,0,0,0,3.21-4.2l2.38-3.8h0a5.69,5.69,0,0,0,1.13-2.77,1.44,1.44,0,0,0-.11-.64.9.9,0,0,0-.34-.39,2.36,2.36,0,0,0-1.2-.31Z" style="fill:#58595b"/></g></g></svg>