<svg xmlns="http://www.w3.org/2000/svg" xmlns:xlink="http://www.w3.org/1999/xlink" viewBox="0 0 342.8 360.38"><defs><style>.cls-1{isolation:isolate;}.cls-2{opacity:0.25;mix-blend-mode:screen;}.cls-3{fill:url(#Degradado_sin_nombre_16);}.cls-4{opacity:0.52;fill:url(#Degradado_sin_nombre_16-2);}.cls-12,.cls-5{opacity:0.32;}.cls-5{fill:url(#Degradado_sin_nombre_16-3);}.cls-6{fill:url(#Degradado_sin_nombre_16-4);}.cls-7{fill:url(#Degradado_sin_nombre_16-5);}.cls-8{fill:url(#Degradado_sin_nombre_16-6);}.cls-9{fill:url(#Degradado_sin_nombre_16-7);}.cls-10{fill:url(#Degradado_sin_nombre_16-8);}.cls-11{fill:url(#Degradado_sin_nombre_16-9);}.cls-12{fill:url(#Degradado_sin_nombre_16-10);}.cls-13,.cls-14{opacity:0.56;}.cls-13{fill:url(#Degradado_sin_nombre_16-11);}.cls-14{fill:url(#Degradado_sin_nombre_16-12);}.cls-15{fill:url(#Degradado_sin_nombre_16-13);}</style><radialGradient id="Degradado_sin_nombre_16" cx="-848.04" cy="2738.79" r="306.14" gradientTransform="translate(906.58 -2395.25)" gradientUnits="userSpaceOnUse"><stop offset="0" stop-color="#171e2e"/><stop offset="0.38" stop-color="#1d2537"/><stop offset="0.99" stop-color="#2e384e"/><stop offset="1" stop-color="#2e394f"/></radialGradient><radialGradient id="Degradado_sin_nombre_16-2" cx="-509.38" cy="2899.61" r="385.3" gradientTransform="translate(658.37 -2719.55)" xlink:href="#Degradado_sin_nombre_16"/><radialGradient id="Degradado_sin_nombre_16-3" cx="-859.2" cy="2833.4" r="306.14" gradientTransform="translate(819.47 -2671.59)" xlink:href="#Degradado_sin_nombre_16"/><radialGradient id="Degradado_sin_nombre_16-4" cx="-913.08" cy="2715.7" r="167.92" gradientTransform="translate(1009.26 -2396.87)" xlink:href="#Degradado_sin_nombre_16"/><radialGradient id="Degradado_sin_nombre_16-5" cx="-461.53" cy="2841.54" r="56.33" gradientTransform="translate(-2350.77 -950.51) rotate(-76.77)" xlink:href="#Degradado_sin_nombre_16"/><radialGradient id="Degradado_sin_nombre_16-6" cx="-840.97" cy="2729.3" r="243.84" gradientTransform="translate(-2620.39 -628.65) rotate(-90)" xlink:href="#Degradado_sin_nombre_16"/><radialGradient id="Degradado_sin_nombre_16-7" cx="-683.85" cy="2809.99" r="197.07" gradientTransform="translate(-2350.77 -950.51) rotate(-76.77)" xlink:href="#Degradado_sin_nombre_16"/><radialGradient id="Degradado_sin_nombre_16-8" cx="-432.61" cy="2836.13" r="151.38" gradientTransform="translate(-2350.77 -950.51) rotate(-76.77)" xlink:href="#Degradado_sin_nombre_16"/><radialGradient id="Degradado_sin_nombre_16-9" cx="-565.63" cy="2738.13" r="169.17" gradientTransform="translate(814.26 -2533.47)" xlink:href="#Degradado_sin_nombre_16"/><radialGradient id="Degradado_sin_nombre_16-10" cx="-557.01" cy="2761.35" r="222.78" gradientTransform="translate(-2350.77 -950.51) rotate(-76.77)" xlink:href="#Degradado_sin_nombre_16"/><radialGradient id="Degradado_sin_nombre_16-11" cx="-862.53" cy="2585.99" r="232.46" gradientTransform="translate(-2620.39 -628.65) rotate(-90)" xlink:href="#Degradado_sin_nombre_16"/><radialGradient id="Degradado_sin_nombre_16-12" cx="-743.68" cy="2621.76" r="187.02" gradientTransform="translate(-2620.39 -628.65) rotate(-90)" xlink:href="#Degradado_sin_nombre_16"/><radialGradient id="Degradado_sin_nombre_16-13" cx="-601.49" cy="2796.64" r="122.51" gradientTransform="translate(-2350.77 -950.51) rotate(-76.77)" xlink:href="#Degradado_sin_nombre_16"/></defs><g class="cls-1"><g id="Layer_2" data-name="Layer 2"><g id="Layer_1-2" data-name="Layer 1"><g class="cls-2"><rect class="cls-3" x="-1.16" y="225.14" width="55.11" height="52.79" rx="23.15" transform="translate(-225.14 277.93) rotate(-90)"/><rect class="cls-4" x="235.69" y="31.04" width="69.36" height="66.44" rx="29.13" transform="translate(145.94 312.76) rotate(-76.77)"/><rect class="cls-5" x="93.45" y="43.42" width="55.11" height="52.79" rx="23.15" transform="translate(51.19 190.82) rotate(-90)"/><rect class="cls-6" x="63.43" y="287.59" width="30.23" height="28.96" rx="12.7" transform="translate(-223.52 380.61) rotate(-90)"/><path class="cls-7" d="M307.7,154.43l-.1.41a4.85,4.85,0,0,1-5.84,3.62h0a4.85,4.85,0,0,1-3.61-5.84l.09-.41a4.85,4.85,0,0,1,5.84-3.62h0A4.86,4.86,0,0,1,307.7,154.43Z"/><path class="cls-8" d="M105.6,185.79v1.85a21,21,0,0,1-21,21h0a21,21,0,0,1-21-21v-1.85a21,21,0,0,1,21-21h0A21,21,0,0,1,105.6,185.79Z"/><path class="cls-9" d="M269,345.82l-.34,1.45a17,17,0,0,1-20.43,12.65h0a17,17,0,0,1-12.65-20.42l.34-1.46a17,17,0,0,1,20.43-12.65h0A17,17,0,0,1,269,345.82Z"/><path class="cls-10" d="M342.45,110.11l-.26,1.12a13.06,13.06,0,0,1-15.7,9.72h0a13.05,13.05,0,0,1-9.72-15.69l.27-1.12a13,13,0,0,1,15.69-9.72h0A13.05,13.05,0,0,1,342.45,110.11Z"/><rect class="cls-11" x="215.65" y="241.11" width="30.45" height="29.17" rx="12.79" transform="translate(-70.87 421.93) rotate(-76.77)"/><path class="cls-12" d="M299.5,219.83l-.39,1.65A19.21,19.21,0,0,1,276,235.78h0a19.21,19.21,0,0,1-14.3-23.1l.38-1.64a19.21,19.21,0,0,1,23.1-14.3h0A19.2,19.2,0,0,1,299.5,219.83Z"/><path class="cls-13" d="M55.78,110.94v1.77a20,20,0,0,1-20.05,20h0a20,20,0,0,1-20-20v-1.77a20,20,0,0,1,20-20h0A20,20,0,0,1,55.78,110.94Z"/><path class="cls-14" d="M73.92,16.12v1.42A16.13,16.13,0,0,1,57.79,33.67h0A16.13,16.13,0,0,1,41.67,17.54V16.12A16.12,16.12,0,0,1,57.79,0h0A16.13,16.13,0,0,1,73.92,16.12Z"/><path class="cls-15" d="M301.37,303.6l-.21.91a10.56,10.56,0,0,1-12.7,7.86h0a10.55,10.55,0,0,1-7.86-12.7l.21-.9a10.57,10.57,0,0,1,12.7-7.87h0A10.56,10.56,0,0,1,301.37,303.6Z"/></g></g></g></g></svg>