<svg xmlns="http://www.w3.org/2000/svg" viewBox="0 0 13.87 14.38"><defs><style>.cls-1{fill:#7c8091;}.cls-2{fill:#dfe0ea;}.cls-3{fill:#a6a8b5;}.cls-4{fill:#eef3a1;}.cls-5{fill:#e8ea8a;}.cls-6{fill:#f8ba44;}</style></defs><g id="Layer_2" data-name="Layer 2"><g id="Layer_1-2" data-name="Layer 1"><path class="cls-1" d="M10,14l0,.08a.59.59,0,0,0,.79.22l.61-.36a.56.56,0,0,0,.21-.78l0-.09Z" transform="translate(0 0)"/><path class="cls-2" d="M8.27,12.16l1.11,1.92a.41.41,0,0,0,.56.15l1.81-1a.42.42,0,0,0,.15-.56l-1.12-1.92Z" transform="translate(0 0)"/><path class="cls-3" d="M9.69,13.58a4.51,4.51,0,0,0-.38.37l.07.13a.41.41,0,0,0,.56.15l1.81-1a.42.42,0,0,0,.15-.56l-1.12-1.92-.8.46C10.05,11.34,10.58,12.77,9.69,13.58Z" transform="translate(0 0)"/><path class="cls-4" d="M5.08,3.82A3.69,3.69,0,0,0,3.74,8.64,3.63,3.63,0,0,0,6,10.43a3,3,0,0,1,1.83,1.4l.15.26a.32.32,0,0,0,.42.11l2.31-1.33a.32.32,0,0,0,.12-.43l-.15-.25a3,3,0,0,1-.3-2.29A3.61,3.61,0,0,0,5.08,3.82Z" transform="translate(0 0)"/><path class="cls-5" d="M10.06,5.12A3.57,3.57,0,0,0,8,3.48,4.24,4.24,0,0,1,9.55,6.92c-.21,2-1.32,3-1.17,4a1.18,1.18,0,0,1-.46,1l.09.15a.32.32,0,0,0,.42.11l2.31-1.33a.32.32,0,0,0,.12-.43l-.15-.25a3,3,0,0,1-.3-2.29A3.59,3.59,0,0,0,10.06,5.12Z" transform="translate(0 0)"/><path class="cls-6" d="M9.85,11.38l.16-.09A24.44,24.44,0,0,1,8.84,7.36c0-.41-.05-.64-.18-.74a.33.33,0,0,0-.31,0,.32.32,0,0,0-.19.15.55.55,0,0,0,0,.33l-1.71,1a.5.5,0,0,0-.29-.15A.38.38,0,0,0,5.91,8a.35.35,0,0,0-.13.29c0,.17.19.33.55.52a24.8,24.8,0,0,1,2.81,3l.16-.09a25.39,25.39,0,0,0-2.88-3C6.05,8.45,6,8.33,6,8.26S6,8.2,6,8.13a.12.12,0,0,1,.09,0,.4.4,0,0,1,.23.14l.05,0L8.35,7.16l0-.07a.38.38,0,0,1,0-.26.11.11,0,0,1,.08-.07.21.21,0,0,1,.15,0c.06,0,.12.18.1.6A28.25,28.25,0,0,0,9.85,11.38Z" transform="translate(0 0)"/><path class="cls-1" d="M11,11.07l-2.5,1.45a.15.15,0,0,0-.06.21.16.16,0,0,0,.21.06l2.51-1.45a.15.15,0,0,0,.05-.21A.16.16,0,0,0,11,11.07Z" transform="translate(0 0)"/><path class="cls-1" d="M11.35,11.66,8.84,13.1a.16.16,0,0,0,.16.27l2.5-1.44a.16.16,0,0,0,.06-.22A.15.15,0,0,0,11.35,11.66Z" transform="translate(0 0)"/><path class="cls-1" d="M11.68,12.24l-2.5,1.44a.15.15,0,0,0,.15.27l2.51-1.44a.16.16,0,0,0,.05-.22A.15.15,0,0,0,11.68,12.24Z" transform="translate(0 0)"/><path class="cls-6" d="M3.35.72A.21.21,0,0,0,3.27,1L4.62,3.34a.21.21,0,0,0,.28.08A.21.21,0,0,0,5,3.13L3.64.8A.21.21,0,0,0,3.35.72Z" transform="translate(0 0)"/><path class="cls-6" d="M0,5.07a.2.2,0,0,0,.15.26L2.75,6A.21.21,0,0,0,3,5.88a.21.21,0,0,0-.15-.26L.27,4.92A.21.21,0,0,0,0,5.07Z" transform="translate(0 0)"/><path class="cls-6" d="M.72,10.52a.21.21,0,0,0,.29.07L3.34,9.25a.21.21,0,1,0-.21-.37L.8,10.23A.21.21,0,0,0,.72,10.52Z" transform="translate(0 0)"/><path class="cls-6" d="M5.07,13.86a.21.21,0,0,0,.26-.15l.7-2.6A.21.21,0,0,0,5.62,11l-.7,2.6A.22.22,0,0,0,5.07,13.86Z" transform="translate(0 0)"/><path class="cls-6" d="M8.79,0a.21.21,0,0,1,.15.26l-.7,2.59A.2.2,0,0,1,8,3a.2.2,0,0,1-.15-.26L8.53.16A.21.21,0,0,1,8.79,0Z" transform="translate(0 0)"/><path class="cls-6" d="M13.14,3.35a.21.21,0,0,1-.07.29L10.74,5a.21.21,0,0,1-.29-.08.2.2,0,0,1,.08-.28l2.33-1.35A.2.2,0,0,1,13.14,3.35Z" transform="translate(0 0)"/><path class="cls-6" d="M13.86,8.79a.22.22,0,0,1-.26.15L11,8.24A.21.21,0,0,1,10.85,8a.21.21,0,0,1,.26-.15l2.6.69A.22.22,0,0,1,13.86,8.79Z" transform="translate(0 0)"/></g></g></svg>