<svg xmlns="http://www.w3.org/2000/svg" viewBox="0 0 92.53 78.1"><defs><style>.cls-1{fill:#f5c318;}</style></defs><g id="Layer_2" data-name="Layer 2"><g id="Layer_1-2" data-name="Layer 1"><path class="cls-1" d="M61.2,62.92a5.48,5.48,0,1,1,7.72-.71A5.49,5.49,0,0,1,61.2,62.92ZM66,57.17A2,2,0,1,0,66.24,60,2,2,0,0,0,66,57.17Z"/><path class="cls-1" d="M76.27,66A5.48,5.48,0,1,1,84,65.28,5.49,5.49,0,0,1,76.27,66Zm4.79-5.76a2,2,0,1,0,.25,2.83A2,2,0,0,0,81.06,60.23Z"/><path class="cls-1" d="M57.47,0A56.6,56.6,0,0,0,50.1,6.91c-.62.68-1.23,1.38-1.85,2.06a1.39,1.39,0,0,1-.15.19A83.74,83.74,0,0,0,37.33,26.48a1,1,0,0,1-1.4.58,49.39,49.39,0,0,1-9.35-4.43,77.26,77.26,0,0,1-11.7-8.55,1,1,0,0,1-.3-1.28A107.06,107.06,0,0,1,20.89,0Z"/><path class="cls-1" d="M88,27.09a20.88,20.88,0,0,0,4.51-3.44V47.22a56.78,56.78,0,0,1-6.35,1.47,72.65,72.65,0,0,1-13.59,1,80.58,80.58,0,0,1-12.42-1.16,94.43,94.43,0,0,1-23-6.79A74.68,74.68,0,0,1,22.4,33,64.19,64.19,0,0,1,4.49,12.09,52.67,52.67,0,0,1,.15,1.51,2.25,2.25,0,0,1,0,.36c1,1.41,1.83,2.75,2.76,4A77.75,77.75,0,0,0,12.94,15.92,65.08,65.08,0,0,0,29.86,27.24a68.75,68.75,0,0,0,33.48,5.95A71.26,71.26,0,0,0,78.46,30.7,44,44,0,0,0,88,27.09Z"/><path class="cls-1" d="M85,76.48c-3.26-.9-6.5-1.83-9.72-2.87-2.23-.72-4.42-1.53-6.59-2.4A100.78,100.78,0,0,1,57.65,66,65.12,65.12,0,0,1,43.18,55.32a23.63,23.63,0,0,1-2.77-3.06c-1.79-2.31-3.63-4.6-4.53-7.46-.17-.53-.63-.66-1-.86a74.79,74.79,0,0,1-7-3.57A54.18,54.18,0,0,1,13.3,27.68c-.19-.23-.27-.61-.91-.63,3.28,17.08,12,30.49,26.35,40.18,1.47.87,2.91,1.8,4.41,2.61A68.63,68.63,0,0,0,63.4,76.68a83.34,83.34,0,0,0,21.45,1.21,9.63,9.63,0,0,0,3.55-.44A16.53,16.53,0,0,0,85,76.48Z"/></g></g></svg>