<svg xmlns="http://www.w3.org/2000/svg" viewBox="0 0 36.18 37.51"><defs><style>.cls-1{fill:#f7c518;}.cls-2{fill:#fff;}</style></defs><g id="Layer_2" data-name="Layer 2"><g id="Layer_1-2" data-name="Layer 1"><path class="cls-1" d="M17.75,37.37a3,3,0,1,1,3.79-2A3,3,0,0,1,17.75,37.37ZM19,33.44a1.1,1.1,0,1,0,.72,1.38A1.09,1.09,0,0,0,19,33.44Z"/><path class="cls-1" d="M24.24,35.35a3,3,0,1,1,3.79-2A3,3,0,0,1,24.24,35.35Zm1.24-3.93a1.12,1.12,0,0,0-1.39.72,1.11,1.11,0,1,0,1.39-.72Z"/><path class="cls-2" d="M32.38,17.69a46.16,46.16,0,0,1-3.5,5.51C22.43,32,12.49,33.26,7.79,26.84,5,23,4.5,17.27,6,11.45c-.28,4.1.53,7.91,2.56,10.67,3.18,4.34,8.52,5,13.79,2.37-11.63,4.27-13.65-9.7-14.3-12.4-.72-3-3-8.26-8-2.64,0,0,.22-4,2.42-5.92a5.79,5.79,0,0,1,8.9,1.93c1.93,3.82,2.24,9.73,4.11,13.15a7.76,7.76,0,0,0,.56.88,4.3,4.3,0,0,0,4.54,1.72,11.16,11.16,0,0,0,6.07,0c.31-.1.61-.19.91-.3A12.92,12.92,0,0,0,31,19,14.3,14.3,0,0,0,32.38,17.69Z"/><path class="cls-2" d="M33.15,15.37c-.38.25-.77.49-1.16.72s-.76.43-1.15.63a20.24,20.24,0,0,1-2.09.9,12.6,12.6,0,0,1-3.26.72c7-4.58,10.67-14.57,10.67-14.57S36.59,8.3,33.15,15.37Z"/><path class="cls-1" d="M22.92,17.88a17.77,17.77,0,0,0,3.77-2.38,15,15,0,0,0,1.69-1.6,14.37,14.37,0,0,0,1.54-2A10.48,10.48,0,0,0,31,9.6a7.14,7.14,0,0,0,.31-1.23c0-.07,0-.17,0-.25a7.53,7.53,0,0,0,0-2.55,7,7,0,0,0-.61-1.83,6.09,6.09,0,0,0-.95-1.44,6.56,6.56,0,0,0-2-1.51A7.08,7.08,0,0,0,25.47.07a7.81,7.81,0,0,0-2.55.09,10.39,10.39,0,0,0-2.86,1,8.69,8.69,0,0,0-1.28.77,10.21,10.21,0,0,0-4.32,6.71,12.6,12.6,0,0,0,.17,4.78,18.17,18.17,0,0,0,1.47,4.09.17.17,0,0,0,.21.12A14.8,14.8,0,0,0,19,17a9.88,9.88,0,0,0,1.77-.77.17.17,0,0,0,.09-.26,15.59,15.59,0,0,1-1.1-3.64.06.06,0,0,0,0,0l-.06-.52A8.46,8.46,0,0,1,19.71,9,5.24,5.24,0,0,1,21,6.41a4.52,4.52,0,0,1,2-1.27,3.06,3.06,0,0,1,2.9.53A3.14,3.14,0,0,1,27.12,9a7.66,7.66,0,0,1-.67,1.78,12.58,12.58,0,0,1-1.51,2.42,12.68,12.68,0,0,1-4.94,4,12.1,12.1,0,0,1-3.67,1,14.39,14.39,0,0,1-2.86,0l-.9-.11a.32.32,0,0,0,.18.12,9.39,9.39,0,0,0,2,.7,12,12,0,0,0,5.13.07A14.16,14.16,0,0,0,22.92,17.88Z"/><path class="cls-1" d="M33.66,15.46c-.53.35-1.06.69-1.6,1q-.55.33-1.14.63a17.63,17.63,0,0,1-2.1.89,11.75,11.75,0,0,1-3.26.72,4,4,0,0,1-.77,0,4.39,4.39,0,0,1-1.6-.28c-.1,0-.17,0-.25,0a13,13,0,0,1-1.35.53,10.07,10.07,0,0,1-3.57.48.21.21,0,0,0-.2.05,11.22,11.22,0,0,0,8.86,1.26c.3-.1.61-.19.91-.3a12.71,12.71,0,0,0,3.44-2,15.48,15.48,0,0,0,2.81-2.85,1.83,1.83,0,0,0,.37-.55A3.7,3.7,0,0,0,33.66,15.46Z"/></g></g></svg>