<svg xmlns="http://www.w3.org/2000/svg" viewBox="0 0 31.52 22.93"><g id="Layer_2" data-name="Layer 2"><g id="Layer_1-2" data-name="Layer 1"><g id="camera"><path d="M23.2.15h0A58.1,58.1,0,0,0,15,.14l-.43,0c-1.24,0-2.25.23-2.42.77l-.45,1.51H26.34L25.9.94C25.75.4,24.43.15,23.2.15Z" style="fill:#fff"/><path d="M5.22,8.62h-2a.58.58,0,0,0-.59.59V16a.59.59,0,0,0,.59.59h2A.59.59,0,0,0,5.81,16V9.21A.58.58,0,0,0,5.22,8.62Zm0,0h-2a.58.58,0,0,0-.59.59V16a.59.59,0,0,0,.59.59h2A.59.59,0,0,0,5.81,16V9.21A.58.58,0,0,0,5.22,8.62ZM29.63,2.34H2.12A2.11,2.11,0,0,0,0,4.45V17.11a5.13,5.13,0,0,0,.57,2.38,5.26,5.26,0,0,0,4.71,2.9h7.78a10.81,10.81,0,0,1-4.78-7.33,10.18,10.18,0,0,1-.13-1.67A10.68,10.68,0,0,1,11.31,5.8a10,10,0,0,1,1.51-1.24,10.69,10.69,0,0,1,12.38.19,10.42,10.42,0,0,1,1.24,1,10.68,10.68,0,0,1,3.15,7.59,10.18,10.18,0,0,1-.13,1.67,10.81,10.81,0,0,1-4.78,7.33h1.56A5.26,5.26,0,0,0,31,19.49a5.13,5.13,0,0,0,.57-2.38V4.45A2.12,2.12,0,0,0,29.63,2.34ZM7.68,17.22A1.28,1.28,0,0,1,6.4,18.5H2A1.28,1.28,0,0,1,.73,17.22V8A1.29,1.29,0,0,1,2,6.68H6.4A1.29,1.29,0,0,1,7.68,8ZM5.14,2.8A1.48,1.48,0,1,1,3.66,4.27,1.47,1.47,0,0,1,5.14,2.8Zm.08,5.82h-2a.58.58,0,0,0-.59.59V16a.59.59,0,0,0,.59.59h2A.59.59,0,0,0,5.81,16V9.21A.58.58,0,0,0,5.22,8.62Z" style="fill:#fff"/><path d="M2.6,16v-.92H5.81V16a.59.59,0,0,1-.59.59h-2A.59.59,0,0,1,2.6,16Z" style="fill:#fff"/><path d="M13.07,22.39H3.4a3.38,3.38,0,0,1-3.35-2.9A2.63,2.63,0,0,1,0,19V17a1.87,1.87,0,0,1,.72-1.49v1.73A1.28,1.28,0,0,0,2,18.5H6.4a1.28,1.28,0,0,0,1.28-1.28V15.06h.61a10.81,10.81,0,0,0,4.78,7.33Z" style="fill:#fff"/><path d="M22.55,15.06a4,4,0,0,1-7.21.29,1.28,1.28,0,0,1-.14-.29Z" style="fill:#fff"/><path d="M28.26,15.06A9.55,9.55,0,0,1,22,22.39H15.72a9.45,9.45,0,0,1-4.17-2.9l-.22-.27a0,0,0,0,1,0,0l-.09-.13c-.17-.23-.33-.48-.48-.73a4,4,0,0,1-.23-.34h0c-.16-.28-.3-.57-.43-.86h0a9.38,9.38,0,0,1-.64-2.11h1.9a7,7,0,0,0,.38,1.23,7.48,7.48,0,0,0,1.22,2,7.7,7.7,0,0,0,13.43-3.26Z" style="fill:#fff"/><path d="M31.52,17v2a2.63,2.63,0,0,1,0,.49,3.39,3.39,0,0,1-3.35,2.9H24.68a10.81,10.81,0,0,0,4.78-7.33h.14A1.92,1.92,0,0,1,31.52,17Z" style="fill:#fff"/><path d="M18.87,2.68a10.58,10.58,0,0,0-6.05,1.88l.62-2.07s0,0,0,0a.56.56,0,0,0,0-.12c.34-.91,1-1,2.07-1.33L15.89,1a18.77,18.77,0,0,1,6.3,0,3,3,0,0,1,2.27,1.36.61.61,0,0,1,.05.12.08.08,0,0,1,0,0l.67,2.26A10.66,10.66,0,0,0,18.87,2.68Z" style="fill:#fff"/><path d="M5.22,8.62h-2a.58.58,0,0,0-.59.59V16a.59.59,0,0,0,.59.59h2A.59.59,0,0,0,5.81,16V9.21A.58.58,0,0,0,5.22,8.62Zm0,0h-2a.58.58,0,0,0-.59.59V16a.59.59,0,0,0,.59.59h2A.59.59,0,0,0,5.81,16V9.21A.58.58,0,0,0,5.22,8.62Zm2.94,4.77A10.68,10.68,0,0,1,11.31,5.8H0V19.49H10.08a10.61,10.61,0,0,1-1.79-4.43A10.18,10.18,0,0,1,8.16,13.39Zm-.48,3.83A1.28,1.28,0,0,1,6.4,18.5H2A1.28,1.28,0,0,1,.73,17.22V8A1.29,1.29,0,0,1,2,6.68H6.4A1.29,1.29,0,0,1,7.68,8ZM5.22,8.62h-2a.58.58,0,0,0-.59.59V16a.59.59,0,0,0,.59.59h2A.59.59,0,0,0,5.81,16V9.21A.58.58,0,0,0,5.22,8.62Z" style="fill:#fff"/><path d="M22.87,12.8a3.55,3.55,0,0,0-.09-.47,2.34,2.34,0,0,1-1.15-.49c-.92.51-1.83,1-2.75,1.53a0,0,0,0,1,0,0,.24.24,0,0,1,.1,0,1.13,1.13,0,0,1,.43.29,1,1,0,0,1,.18.22h0a1.19,1.19,0,0,1,.13.25,1.4,1.4,0,0,1,.09.29l-1,.57h3.74a3.89,3.89,0,0,0,.37-1.67A2.88,2.88,0,0,0,22.87,12.8Zm0,0a3.55,3.55,0,0,0-.09-.47,2.34,2.34,0,0,1-1.15-.49c-.92.51-1.83,1-2.75,1.53a0,0,0,0,1,0,0,.24.24,0,0,1,.1,0,1.13,1.13,0,0,1,.43.29,1,1,0,0,1,.18.22h0a1.19,1.19,0,0,1,.13.25,1.4,1.4,0,0,1,.09.29l-1,.57H15.2a1.28,1.28,0,0,0,.14.29,4,4,0,0,0,.92,1.13,4,4,0,0,0,6.29-1.42,3.89,3.89,0,0,0,.37-1.67A2.88,2.88,0,0,0,22.87,12.8ZM20.71,10a.91.91,0,0,1,0-.17,4,4,0,0,0-1.85-.45,4,4,0,0,0-4,4A4,4,0,0,0,15,14.54l6.09-3.27A2.39,2.39,0,0,1,20.71,10Zm2.16,2.83a3.55,3.55,0,0,0-.09-.47,2.34,2.34,0,0,1-1.15-.49,2.26,2.26,0,0,1-.54-.57,2.39,2.39,0,0,1-.38-1.3.91.91,0,0,1,0-.17,4,4,0,0,0-1.85-.45,4,4,0,0,0-4,4A4,4,0,0,0,15,14.54a2.54,2.54,0,0,0,.2.52,1.28,1.28,0,0,0,.14.29,4,4,0,0,0,.92,1.13,4,4,0,0,0,6.29-1.42,3.89,3.89,0,0,0,.37-1.67A2.88,2.88,0,0,0,22.87,12.8Zm0,0a3.55,3.55,0,0,0-.09-.47,3.81,3.81,0,0,0-.38-.91A3.27,3.27,0,0,0,22,10.8a3.81,3.81,0,0,0-1.25-1,4,4,0,0,0-1.85-.45,4,4,0,0,0-4,4A4,4,0,0,0,15,14.54a2.54,2.54,0,0,0,.2.52,1.28,1.28,0,0,0,.14.29,4,4,0,0,0,.92,1.13,4,4,0,0,0,6.29-1.42,3.89,3.89,0,0,0,.37-1.67A2.88,2.88,0,0,0,22.87,12.8Zm0,0a3.55,3.55,0,0,0-.09-.47,3.81,3.81,0,0,0-.38-.91A3.27,3.27,0,0,0,22,10.8a3.81,3.81,0,0,0-1.25-1,4,4,0,0,0-1.85-.45,4,4,0,0,0-4,4A4,4,0,0,0,15,14.54a2.54,2.54,0,0,0,.2.52,1.28,1.28,0,0,0,.14.29,4,4,0,0,0,.92,1.13,4,4,0,0,0,6.29-1.42,3.89,3.89,0,0,0,.37-1.67A2.88,2.88,0,0,0,22.87,12.8Zm0,0a3.55,3.55,0,0,0-.09-.47,3.81,3.81,0,0,0-.38-.91A3.27,3.27,0,0,0,22,10.8a3.81,3.81,0,0,0-1.25-1,4,4,0,0,0-1.85-.45,4,4,0,0,0-4,4A4,4,0,0,0,15,14.54a2.54,2.54,0,0,0,.2.52,1.28,1.28,0,0,0,.14.29,4,4,0,0,0,.92,1.13,4,4,0,0,0,6.29-1.42,3.89,3.89,0,0,0,.37-1.67A2.88,2.88,0,0,0,22.87,12.8Zm0,0a3.55,3.55,0,0,0-.09-.47,3.81,3.81,0,0,0-.38-.91A3.27,3.27,0,0,0,22,10.8a3.81,3.81,0,0,0-1.25-1,4,4,0,0,0-1.85-.45,4,4,0,0,0-4,4A4,4,0,0,0,15,14.54a2.54,2.54,0,0,0,.2.52,1.28,1.28,0,0,0,.14.29,4,4,0,0,0,.92,1.13,4,4,0,0,0,6.29-1.42,3.89,3.89,0,0,0,.37-1.67A2.88,2.88,0,0,0,22.87,12.8Zm0,0a3.55,3.55,0,0,0-.09-.47,3.81,3.81,0,0,0-.38-.91A3.27,3.27,0,0,0,22,10.8a3.81,3.81,0,0,0-1.25-1,4,4,0,0,0-1.85-.45,4,4,0,0,0-4,4A4,4,0,0,0,15,14.54a2.54,2.54,0,0,0,.2.52,1.28,1.28,0,0,0,.14.29,4,4,0,0,0,.92,1.13,4,4,0,0,0,6.29-1.42,3.89,3.89,0,0,0,.37-1.67A2.88,2.88,0,0,0,22.87,12.8Zm0,0a3.55,3.55,0,0,0-.09-.47,3.81,3.81,0,0,0-.38-.91A3.27,3.27,0,0,0,22,10.8a3.81,3.81,0,0,0-1.25-1,4,4,0,0,0-1.85-.45,4,4,0,0,0-4,4A4,4,0,0,0,15,14.54a2.54,2.54,0,0,0,.2.52,1.28,1.28,0,0,0,.14.29,4,4,0,0,0,.92,1.13,4,4,0,0,0,6.29-1.42,3.89,3.89,0,0,0,.37-1.67A2.88,2.88,0,0,0,22.87,12.8Zm4.92-2.74c-.06-.18-.14-.36-.22-.54a.13.13,0,0,0,0-.07,3.78,3.78,0,0,0-.17-.35,2.31,2.31,0,0,0-.18-.35h0c-.11-.19-.21-.4-.33-.58v0l-.24-.35c-.12-.17-.24-.33-.37-.49l-.06-.07-.39-.43a4,4,0,0,0-.35-.36l-.14-.13c-.17-.16-.35-.31-.54-.46h0l-.08-.07h0a3.28,3.28,0,0,0-.44-.32l-.35-.23-.36-.2a9.52,9.52,0,0,0-10.4.75L13,5.87A9.51,9.51,0,0,0,9.45,12a9.76,9.76,0,0,0-.11,1.44,9.18,9.18,0,0,0,.15,1.67,9.41,9.41,0,0,0,.62,2.1c.13.29.27.58.43.86a2.5,2.5,0,0,0,.21.35c.15.25.31.5.48.73l.1.12.22.27a9.53,9.53,0,0,0,16.71-4.43,9.18,9.18,0,0,0,.15-1.67A9.42,9.42,0,0,0,27.79,10.06Zm-8.92,11A7.67,7.67,0,0,1,13,18.32a7.48,7.48,0,0,1-1.22-2,7,7,0,0,1-.38-1.23,7.13,7.13,0,0,1-.19-1.67,7.36,7.36,0,0,1,.42-2.49,7.69,7.69,0,0,1,7.28-5.22,7.36,7.36,0,0,1,2.49.42,7.47,7.47,0,0,1,2.92,1.8,7.06,7.06,0,0,1,1,1.15.86.86,0,0,1,.1.16,4.78,4.78,0,0,1,.26.42A6.31,6.31,0,0,1,26.18,11a7.5,7.5,0,0,1,.4,2.43,7.13,7.13,0,0,1-.19,1.67A7.7,7.7,0,0,1,18.87,21.09Zm3.91-8.76a3.81,3.81,0,0,0-.38-.91A3.27,3.27,0,0,0,22,10.8a3.81,3.81,0,0,0-1.25-1,4,4,0,0,0-1.85-.45,4,4,0,0,0-4,4A4,4,0,0,0,15,14.54a2.54,2.54,0,0,0,.2.52,1.28,1.28,0,0,0,.14.29,4,4,0,0,0,.92,1.13,4,4,0,0,0,6.29-1.42,3.89,3.89,0,0,0,.37-1.67,2.88,2.88,0,0,0-.05-.59A3.55,3.55,0,0,0,22.78,12.33Zm.09.47a3.55,3.55,0,0,0-.09-.47,3.81,3.81,0,0,0-.38-.91A3.27,3.27,0,0,0,22,10.8a3.81,3.81,0,0,0-1.25-1,4,4,0,0,0-1.85-.45,4,4,0,0,0-4,4A4,4,0,0,0,15,14.54a2.54,2.54,0,0,0,.2.52,1.28,1.28,0,0,0,.14.29,4,4,0,0,0,.92,1.13,4,4,0,0,0,6.29-1.42,3.89,3.89,0,0,0,.37-1.67A2.88,2.88,0,0,0,22.87,12.8Zm0,0a3.55,3.55,0,0,0-.09-.47,3.81,3.81,0,0,0-.38-.91A3.27,3.27,0,0,0,22,10.8a3.81,3.81,0,0,0-1.25-1,4,4,0,0,0-1.85-.45,4,4,0,0,0-4,4A4,4,0,0,0,15,14.54a2.54,2.54,0,0,0,.2.52,1.28,1.28,0,0,0,.14.29,4,4,0,0,0,.92,1.13,4,4,0,0,0,6.29-1.42,3.89,3.89,0,0,0,.37-1.67A2.88,2.88,0,0,0,22.87,12.8Zm0,0a3.55,3.55,0,0,0-.09-.47,3.81,3.81,0,0,0-.38-.91A3.27,3.27,0,0,0,22,10.8a3.81,3.81,0,0,0-1.25-1,4,4,0,0,0-1.85-.45,4,4,0,0,0-4,4A4,4,0,0,0,15,14.54a2.54,2.54,0,0,0,.2.52,1.28,1.28,0,0,0,.14.29,4,4,0,0,0,.92,1.13,4,4,0,0,0,6.29-1.42,3.89,3.89,0,0,0,.37-1.67A2.88,2.88,0,0,0,22.87,12.8Zm0,0a3.55,3.55,0,0,0-.09-.47,3.81,3.81,0,0,0-.38-.91A3.27,3.27,0,0,0,22,10.8a3.81,3.81,0,0,0-1.25-1,4,4,0,0,0-1.85-.45,4,4,0,0,0-4,4A4,4,0,0,0,15,14.54a2.54,2.54,0,0,0,.2.52,1.28,1.28,0,0,0,.14.29,4,4,0,0,0,.92,1.13,4,4,0,0,0,6.29-1.42,3.89,3.89,0,0,0,.37-1.67A2.88,2.88,0,0,0,22.87,12.8Zm0,0a3.55,3.55,0,0,0-.09-.47,3.81,3.81,0,0,0-.38-.91A3.27,3.27,0,0,0,22,10.8a3.81,3.81,0,0,0-1.25-1,4,4,0,0,0-1.85-.45,4,4,0,0,0-4,4A4,4,0,0,0,15,14.54a2.54,2.54,0,0,0,.2.52,1.28,1.28,0,0,0,.14.29,4,4,0,0,0,.92,1.13,4,4,0,0,0,6.29-1.42,3.89,3.89,0,0,0,.37-1.67A2.88,2.88,0,0,0,22.87,12.8Zm0,0a3.55,3.55,0,0,0-.09-.47,3.81,3.81,0,0,0-.38-.91A3.27,3.27,0,0,0,22,10.8a3.81,3.81,0,0,0-1.25-1,4,4,0,0,0-1.85-.45,4,4,0,0,0-4,4A4,4,0,0,0,15,14.54a2.54,2.54,0,0,0,.2.52,1.28,1.28,0,0,0,.14.29,4,4,0,0,0,.92,1.13,4,4,0,0,0,6.29-1.42,3.89,3.89,0,0,0,.37-1.67A2.88,2.88,0,0,0,22.87,12.8Zm0,0a3.55,3.55,0,0,0-.09-.47,2.34,2.34,0,0,1-1.15-.49,2.26,2.26,0,0,1-.54-.57,2.39,2.39,0,0,1-.38-1.3.91.91,0,0,1,0-.17,4,4,0,0,0-1.85-.45,4,4,0,0,0-4,4A4,4,0,0,0,15,14.54a2.54,2.54,0,0,0,.2.52,1.28,1.28,0,0,0,.14.29,4,4,0,0,0,.92,1.13,4,4,0,0,0,6.29-1.42,3.89,3.89,0,0,0,.37-1.67A2.88,2.88,0,0,0,22.87,12.8Zm0,0a3.55,3.55,0,0,0-.09-.47,2.34,2.34,0,0,1-1.15-.49c-.92.51-1.83,1-2.75,1.53a0,0,0,0,1,0,0,.24.24,0,0,1,.1,0,1.13,1.13,0,0,1,.43.29,1,1,0,0,1,.18.22h0a1.19,1.19,0,0,1,.13.25,1.4,1.4,0,0,1,.09.29l-1,.57h3.74a3.89,3.89,0,0,0,.37-1.67A2.88,2.88,0,0,0,22.87,12.8Zm0,0a3.55,3.55,0,0,0-.09-.47,2.34,2.34,0,0,1-1.15-.49c-.92.51-1.83,1-2.75,1.53a0,0,0,0,1,0,0l.12,0a1.13,1.13,0,0,1,.43.29,1,1,0,0,1,.18.22h0a1.19,1.19,0,0,1,.13.25,1.4,1.4,0,0,1,.09.29l-1,.57h3.74a3.89,3.89,0,0,0,.37-1.67A2.88,2.88,0,0,0,22.87,12.8Z" style="fill:#fff"/><path d="M22.92,13.39a3.89,3.89,0,0,1-.37,1.67,4,4,0,0,1-7.21.29,1.28,1.28,0,0,1-.14-.29,2.54,2.54,0,0,1-.2-.52,4,4,0,0,1-.17-1.15,4,4,0,0,1,4-4,4,4,0,0,1,1.85.45,3.81,3.81,0,0,1,1.25,1,3.27,3.27,0,0,1,.43.62,3.81,3.81,0,0,1,.38.91,3.55,3.55,0,0,1,.09.47A2.88,2.88,0,0,1,22.92,13.39Z" style="fill:#fff"/><path d="M22.92,13.39a3.89,3.89,0,0,1-.37,1.67,4,4,0,0,1-7.21.29,1.28,1.28,0,0,1-.14-.29,2.54,2.54,0,0,1-.2-.52,4,4,0,0,1-.17-1.15,4,4,0,0,1,4-4,4,4,0,0,1,1.85.45,3.81,3.81,0,0,1,1.25,1,3.27,3.27,0,0,1,.43.62,3.81,3.81,0,0,1,.38.91,3.55,3.55,0,0,1,.09.47A2.88,2.88,0,0,1,22.92,13.39Z" style="fill:#fff"/><rect x="2.6" y="8.62" width="3.21" height="7.95" rx="0.59" style="fill:#fff"/><rect x="3.78" y="1.27" width="6.89" height="0.97" rx="0.18" style="fill:#fff"/><path d="M29.33,2.29H26.8a.51.51,0,0,1-.51-.51h0a.51.51,0,0,1,.51-.51h2.53a.51.51,0,0,1,.51.51h0A.51.51,0,0,1,29.33,2.29Z" style="fill:#fff"/><path d="M25.34,9.21a.86.86,0,0,0-.1-.16,7.06,7.06,0,0,0-1-1.15,2.42,2.42,0,0,1,1,1.12A1.06,1.06,0,0,1,25.34,9.21Z" style="fill:#fff;opacity:0.39"/><rect x="2.6" y="8.62" width="3.21" height="7.95" rx="0.59" style="fill:#fff"/></g></g></g></svg>