<svg xmlns="http://www.w3.org/2000/svg" xmlns:xlink="http://www.w3.org/1999/xlink" viewBox="0 0 27.23 30.45"><defs><linearGradient id="linear-gradient" x1="6.38" y1="25.34" x2="20.62" y2="25.34" gradientUnits="userSpaceOnUse"><stop offset="0" stop-color="#328aa2"/><stop offset="1" stop-color="#00aee5"/></linearGradient><linearGradient id="linear-gradient-2" x1="6.38" y1="25.33" x2="18.4" y2="25.33" xlink:href="#linear-gradient"/><linearGradient id="linear-gradient-3" x1="6.38" y1="23.21" x2="12.83" y2="23.21" xlink:href="#linear-gradient"/><linearGradient id="linear-gradient-4" x1="0" y1="25.03" x2="3.5" y2="25.03" xlink:href="#linear-gradient"/><linearGradient id="linear-gradient-5" x1="0.1" y1="24.15" x2="5.29" y2="24.15" gradientTransform="translate(17.24 4.68) rotate(43.13)" xlink:href="#linear-gradient"/><linearGradient id="linear-gradient-6" x1="2.38" y1="25.36" x2="5.29" y2="25.36" gradientTransform="translate(18.37 4.23) rotate(43.13)" xlink:href="#linear-gradient"/><linearGradient id="linear-gradient-7" x1="13.59" y1="10.35" x2="21.13" y2="10.35" xlink:href="#linear-gradient"/><linearGradient id="linear-gradient-8" x1="14.23" y1="10.74" x2="21.13" y2="10.74" xlink:href="#linear-gradient"/><linearGradient id="linear-gradient-9" x1="2.62" y1="24.22" x2="2.65" y2="24.22" xlink:href="#linear-gradient"/><linearGradient id="linear-gradient-10" x1="1.22" y1="20.73" x2="11.26" y2="20.73" xlink:href="#linear-gradient"/><linearGradient id="linear-gradient-11" x1="5.15" y1="18.91" x2="11.14" y2="18.91" xlink:href="#linear-gradient"/><linearGradient id="linear-gradient-12" x1="11.68" y1="23.12" x2="12.02" y2="23.12" xlink:href="#linear-gradient"/><linearGradient id="linear-gradient-13" x1="4.92" y1="11.84" x2="26.15" y2="11.84" xlink:href="#linear-gradient"/><linearGradient id="linear-gradient-14" x1="1.34" y1="23.62" x2="11.26" y2="23.62" xlink:href="#linear-gradient"/><linearGradient id="linear-gradient-16" x1="10.6" y1="19.02" x2="26.15" y2="19.02" xlink:href="#linear-gradient"/><linearGradient id="linear-gradient-17" x1="10.09" y1="9.59" x2="26.15" y2="9.59" xlink:href="#linear-gradient"/><linearGradient id="linear-gradient-18" x1="16.32" y1="28.28" x2="20.82" y2="28.28" gradientTransform="translate(24.35 -5.05) rotate(43.14)" xlink:href="#linear-gradient"/><linearGradient id="linear-gradient-19" x1="16.32" y1="28.66" x2="20.82" y2="28.66" xlink:href="#linear-gradient"/><linearGradient id="linear-gradient-20" x1="9.39" y1="9.46" x2="27.23" y2="9.46" gradientTransform="translate(11.42 -9.96) rotate(43.14)" xlink:href="#linear-gradient"/></defs><g style="isolation:isolate"><g id="Layer_2" data-name="Layer 2"><g id="Layer_1-2" data-name="Layer 1"><path d="M11.68,23.24l-.42.32L9.7,21.89,9,21.58l-1-.49L7.76,21l-1,1.85-.39.73L9,25l.83.45L16.58,29l1.15.62.07,0,.6-.58L20.62,27l-.06,0-1.21-.56-6.52-3.08L12,23Z" style="fill:url(#linear-gradient)"/><polygon points="8.01 21.08 7.77 20.97 6.38 23.55 17.8 29.69 18.41 29.12 6.99 22.99 8.01 21.08" style="opacity:0.1;mix-blend-mode:multiply;fill:url(#linear-gradient-2)"/><path d="M12,23l.81.38-.29.23c-.53.4-1.18.9-1.89,1.36-.25.16-.51.32-.78.47,0,0,0,0,0,0L9,25,6.38,23.56l.39-.73,1-1.85.24.11,1,.49.68.31,1.56,1.67.42-.32Z" style="opacity:0.1;mix-blend-mode:multiply;fill:url(#linear-gradient-3)"/><path d="M2.68,24.16c.82.88,1.07,2,.56,2.46s-1.59.16-2.42-.72-1.07-2-.55-2.45S1.86,23.29,2.68,24.16Z" style="fill:url(#linear-gradient-4)"/><rect x="1.18" y="21.97" width="3.04" height="4.35" transform="translate(-15.78 8.37) rotate(-43.13)" style="fill:url(#linear-gradient-5)"/><rect x="2.31" y="24.85" width="3.04" height="1.02" transform="translate(-16.3 9.47) rotate(-43.13)" style="opacity:0.1;mix-blend-mode:multiply;fill:url(#linear-gradient-6)"/><path d="M20.11,7.77a3.77,3.77,0,1,1-5.33-.17A3.77,3.77,0,0,1,20.11,7.77Z" style="fill:url(#linear-gradient-7)"/><path d="M19.12,12.23a3.79,3.79,0,0,1-4.89.23,4.12,4.12,0,0,0,.38.47,3.77,3.77,0,0,0,5.5-5.16,4.28,4.28,0,0,0-.45-.4A3.77,3.77,0,0,1,19.12,12.23Z" style="opacity:0.1;mix-blend-mode:multiply;fill:url(#linear-gradient-8)"/><path d="M2.63,24.22Z" style="fill:url(#linear-gradient-9)"/><path d="M9.7,21.89l1.56,1.67c-.44.32-.91.65-1.42,1A7.9,7.9,0,0,1,9,25H9a5.46,5.46,0,0,1-4.61.52A3.77,3.77,0,0,1,3.49,25c-.14-.1-.28-.22-.43-.35h0a5.35,5.35,0,0,1-.42-.41,5.58,5.58,0,0,1-.39-.46h0a0,0,0,0,0,0,0L2,23.38a3.6,3.6,0,0,1-.29-.5,3.41,3.41,0,0,1-.22-.54A2.35,2.35,0,0,1,1.34,22c-.59-2.4,1.13-4.76,2.49-6.36l5.42,5.79Z" style="fill:url(#linear-gradient-10)"/><path d="M5.55,15.74l5.59,6-.48.37L5.15,16.21a2,2,0,0,1,.23-.27A1.51,1.51,0,0,1,5.55,15.74Z" style="fill:url(#linear-gradient-11)"/><path d="M11.68,23.24A2.37,2.37,0,0,0,12,23l0,0" style="fill:url(#linear-gradient-12)"/><path d="M26.15,17.82a4.71,4.71,0,0,1-.91.17c-.3,0-.59.06-.88.07a16.41,16.41,0,0,0-2,.15,22.86,22.86,0,0,0-9.73,4.34l-2-2.14L4.92,14.34c0,.07,4.11-5.93,4.9-9.43a16.14,16.14,0,0,0,.26-2c0-.15,0-.3.06-.44s0-.32.07-.48h0a6.5,6.5,0,0,1,.22-.84l5.43,5.77,4,4.29.83.87L24,15.49Z" style="fill:url(#linear-gradient-13)"/><g style="opacity:0.1;mix-blend-mode:multiply"><path d="M11.26,23.56c-.44.32-.91.65-1.42,1A7.9,7.9,0,0,1,9,25H9a5.46,5.46,0,0,1-4.61.52A3.77,3.77,0,0,1,3.49,25c-.14-.1-.28-.22-.43-.35h0a5.35,5.35,0,0,1-.42-.41,5.58,5.58,0,0,1-.39-.46h0a0,0,0,0,0,0,0L2,23.38a3.6,3.6,0,0,1-.29-.5,3.41,3.41,0,0,1-.22-.54A2.35,2.35,0,0,1,1.34,22l.25.22A4.29,4.29,0,0,0,4,23.31a5.49,5.49,0,0,0,2.78-.48,3.29,3.29,0,0,0,.39-.17h0A14.47,14.47,0,0,0,9,21.58l.23-.16.45.47Z" style="fill:url(#linear-gradient-14)"/></g><path d="M11.68,23.24A2.37,2.37,0,0,0,12,23l0,0" style="fill:url(#linear-gradient-12)"/><g style="opacity:0.1;mix-blend-mode:multiply"><path d="M26.15,17.82a4.71,4.71,0,0,1-.91.17c-.3,0-.59.06-.88.07a16.41,16.41,0,0,0-2,.15,22.86,22.86,0,0,0-9.73,4.34l-2-2.14a23.44,23.44,0,0,1,10.19-4.69,10.36,10.36,0,0,1,1.26-.1l.92,0c.32,0,.65,0,1-.08Z" style="fill:url(#linear-gradient-16)"/></g><g style="opacity:0.1;mix-blend-mode:multiply"><path d="M26.15,17.82,10.43,1.13a7.92,7.92,0,0,0-.34,1.77L24.36,18.06A8.13,8.13,0,0,0,26.15,17.82Z" style="fill:url(#linear-gradient-17)"/></g><rect x="16.06" y="27.47" width="5.03" height="1.61" rx="0.31" transform="translate(-14.32 20.34) rotate(-43.14)" style="fill:url(#linear-gradient-18)"/><path d="M17.52,29.86a.33.33,0,0,1-.45,0l-.63-.68,0,0a.32.32,0,0,0,0,.45l.67.71a.31.31,0,0,0,.44,0l3.21-3a.31.31,0,0,0,0-.44l0,0Z" style="opacity:0.1;mix-blend-mode:multiply;fill:url(#linear-gradient-19)"/><rect x="17.53" y="-2.94" width="1.57" height="24.8" rx="0.31" transform="translate(-1.52 15.08) rotate(-43.14)" style="fill:url(#linear-gradient-20)"/></g></g></g></svg>