<svg xmlns="http://www.w3.org/2000/svg" viewBox="0 0 21.43 33.7"><g id="Layer_2" data-name="Layer 2"><g id="Layer_1-2" data-name="Layer 1"><path d="M11.18,0a10.16,10.16,0,0,1,1.36.23A7.21,7.21,0,0,1,18,5.89a4.86,4.86,0,0,1,.11,1.53h-5a.64.64,0,0,0-.64.44.64.64,0,0,0,.22.74.94.94,0,0,0,.49.15h5v1.35h-5a.66.66,0,0,0-.63.4.61.61,0,0,0,.07.66.64.64,0,0,0,.59.28h5v1.36h-5a.65.65,0,0,0-.61.36.64.64,0,0,0,0,.69.67.67,0,0,0,.61.29h5a2.07,2.07,0,0,1,0,.25,15,15,0,0,1-.1,2.51,7.07,7.07,0,0,1-2.6,4.37,7.33,7.33,0,0,1-4.69,1.65,7.35,7.35,0,0,1-5.16-2A6.8,6.8,0,0,1,3.37,16.7c-.1-.81-.05-1.65-.07-2.47,0,0,0,0,0-.07h5A.63.63,0,0,0,9,13.79a.67.67,0,0,0-.61-1h-5V11.46h5A.66.66,0,0,0,9,11a.65.65,0,0,0-.21-.74.93.93,0,0,0-.48-.15h-5V8.77h5A.68.68,0,0,0,9,7.93a.65.65,0,0,0-.64-.5H3.28c0-.4,0-.78.08-1.16a7,7,0,0,1,2-4A7.3,7.3,0,0,1,9.4.11L10.22,0Z" style="fill:#fff"/><path d="M12.74,26v3.63H8.69V26.22c0-.13,0-.19-.16-.22a10.77,10.77,0,0,1-6.78-4.64,10.2,10.2,0,0,1-1.56-3.9A13.57,13.57,0,0,1,0,15.55c0-1.1,0-2.2,0-3.3a.91.91,0,0,1,0-.33.54.54,0,0,1,.63-.36.55.55,0,0,1,.49.49,1.93,1.93,0,0,1,0,.24c0,1.23,0,2.46,0,3.69a8.61,8.61,0,0,0,.89,3.59A9.38,9.38,0,0,0,7,24.3a9.1,9.1,0,0,0,3.21.73,9.52,9.52,0,0,0,9.56-6.66,9.23,9.23,0,0,0,.44-2.86c0-1.1,0-2.2,0-3.29a.59.59,0,0,1,.55-.66.57.57,0,0,1,.63.57c0,.94,0,1.89,0,2.83a17.09,17.09,0,0,1-.11,2,10.14,10.14,0,0,1-1.7,4.49,10.74,10.74,0,0,1-6,4.35C13.35,25.91,13.06,26,12.74,26Z" style="fill:#fff"/><path d="M2,33.7a2.37,2.37,0,0,1,1.61-2.54A2.15,2.15,0,0,1,4.32,31h12.8a2.34,2.34,0,0,1,2.3,2.51l0,.15Z" style="fill:#fff"/></g></g></svg>