<svg xmlns="http://www.w3.org/2000/svg" xmlns:xlink="http://www.w3.org/1999/xlink" viewBox="0 0 32.73 25.3"><defs><linearGradient id="linear-gradient" x1="5.68" y1="7.65" x2="10.81" y2="7.65" gradientUnits="userSpaceOnUse"><stop offset="0" stop-color="#328aa2"/><stop offset="1" stop-color="#00aee5"/></linearGradient><linearGradient id="linear-gradient-2" x1="11.95" y1="7.65" x2="27.09" y2="7.65" gradientTransform="translate(0.03 -0.06) rotate(0.19)" xlink:href="#linear-gradient"/><linearGradient id="linear-gradient-3" x1="2.12" y1="8.53" x2="30.3" y2="8.53" xlink:href="#linear-gradient"/><linearGradient id="linear-gradient-5" x1="11.95" y1="7.65" x2="27.09" y2="7.65" gradientTransform="translate(0.03 -0.06) rotate(0.19)" xlink:href="#linear-gradient"/><linearGradient id="linear-gradient-6" x1="15.81" y1="0.94" x2="16.46" y2="0.94" xlink:href="#linear-gradient"/><linearGradient id="linear-gradient-7" x1="28.81" y1="14.31" x2="28.82" y2="14.31" xlink:href="#linear-gradient"/><linearGradient id="linear-gradient-8" x1="2.23" y1="21.38" x2="30.68" y2="21.38" xlink:href="#linear-gradient"/><linearGradient id="linear-gradient-9" x1="2.85" y1="18.14" x2="29.89" y2="18.14" xlink:href="#linear-gradient"/><linearGradient id="linear-gradient-10" x1="2.52" y1="19.39" x2="30.32" y2="19.39" xlink:href="#linear-gradient"/><linearGradient id="linear-gradient-11" x1="0.24" y1="23.53" x2="32.49" y2="23.53" xlink:href="#linear-gradient"/><linearGradient id="linear-gradient-12" x1="0" y1="24.15" x2="32.73" y2="24.15" xlink:href="#linear-gradient"/><linearGradient id="linear-gradient-15" x1="2.23" y1="20.59" x2="30.68" y2="20.59" xlink:href="#linear-gradient"/><linearGradient id="linear-gradient-16" x1="11.85" y1="22" x2="21.01" y2="22" xlink:href="#linear-gradient"/><linearGradient id="linear-gradient-17" x1="17.21" y1="21.78" x2="17.77" y2="21.78" xlink:href="#linear-gradient"/><linearGradient id="linear-gradient-19" x1="11.95" y1="7.65" x2="27.09" y2="7.65" gradientTransform="translate(0.03 -0.07) rotate(0.21)" xlink:href="#linear-gradient"/></defs><g style="isolation:isolate"><g id="Layer_2" data-name="Layer 2"><g id="Layer_1-2" data-name="Layer 1"><polygon points="10.79 2.65 10.81 12.64 5.71 12.65 5.68 2.66 10.79 2.65" style="fill:url(#linear-gradient)"/><rect x="11.96" y="2.66" width="15.11" height="9.99" transform="translate(-0.03 0.06) rotate(-0.19)" style="fill:url(#linear-gradient-2)"/><path d="M30.15.73A.72.72,0,0,0,29.41,0L2.85.27A.72.72,0,0,0,2.12,1l.16,15.31a.73.73,0,0,0,.74.73l26.55-.26A.74.74,0,0,0,30.3,16Zm-2,14.59-23.78.23a.63.63,0,0,1-.67-.6v-.77L3.59,2.35a.64.64,0,0,1,.66-.61L28,1.49a.64.64,0,0,1,.66.61l.11,11.82v.78A.64.64,0,0,1,28.17,15.32Z" style="fill:url(#linear-gradient-3)"/><polygon points="5.71 12.65 5.68 2.66 10.79 2.65 10.81 12.64 5.71 12.65" style="fill:url(#linear-gradient)"/><rect x="11.96" y="2.66" width="15.11" height="9.99" transform="translate(-0.03 0.06) rotate(-0.19)" style="fill:url(#linear-gradient-5)"/><path d="M16.46.94a.33.33,0,1,1-.65,0,.32.32,0,0,1,.32-.33A.32.32,0,0,1,16.46.94Z" style="fill:url(#linear-gradient-6)"/><polygon points="28.82 13.93 28.82 14.7 28.81 13.93 28.82 13.93" style="opacity:0.1;mix-blend-mode:multiply;fill:url(#linear-gradient-7)"/><polygon points="17.21 20.98 2.23 21.12 2.48 20.33 30.46 20.06 30.68 20.84 17.76 20.96 17.76 21.33 20.82 21.3 21.01 22.6 17.77 22.63 17.77 22.69 17.23 22.7 17.23 22.64 11.85 22.7 11.98 21.38 17.22 21.33 17.21 20.98" style="fill:url(#linear-gradient-8)"/><polygon points="29.89 18.4 2.85 18.66 3.09 17.88 29.62 17.62 29.89 18.4" style="fill:url(#linear-gradient-9)"/><polygon points="30.32 19.65 2.52 19.93 2.76 19.14 30.04 18.86 30.32 19.65" style="fill:url(#linear-gradient-10)"/><path d="M32.48,23.44c.05.18-.28.32-.75.32L1,24.07c-.48,0-.82-.13-.77-.3l.1-.34a.78.78,0,0,1,.4-.12L32,23a.77.77,0,0,1,.4.11Z" style="fill:url(#linear-gradient-11)"/><path d="M32.73,23.73v.51A.74.74,0,0,1,32,25L.76,25.3A.73.73,0,0,1,0,24.57v-.51a.74.74,0,0,1,.34-.63.78.78,0,0,1,.4-.12L32,23a.77.77,0,0,1,.4.11A.71.71,0,0,1,32.73,23.73Z" style="fill:url(#linear-gradient-12)"/><polygon points="29.89 18.4 2.85 18.66 3.09 17.88 29.62 17.62 29.89 18.4" style="fill:url(#linear-gradient-9)"/><polygon points="30.32 19.65 2.52 19.93 2.76 19.14 30.04 18.86 30.32 19.65" style="fill:url(#linear-gradient-10)"/><polygon points="30.68 20.84 17.76 20.96 17.21 20.98 2.23 21.12 2.48 20.33 30.46 20.06 30.68 20.84" style="fill:url(#linear-gradient-15)"/><polygon points="21.01 22.6 17.77 22.63 17.23 22.64 11.85 22.7 11.98 21.38 17.22 21.33 17.76 21.33 20.82 21.3 21.01 22.6" style="fill:url(#linear-gradient-16)"/><polygon points="17.77 22.63 17.77 22.69 17.23 22.7 17.23 22.64 17.22 21.33 17.21 20.98 17.21 20.86 17.76 20.86 17.76 21.33 17.77 22.63" style="fill:url(#linear-gradient-17)"/><polygon points="10.81 12.64 5.71 12.65 5.68 2.66 10.79 2.65 10.81 12.64" style="fill:url(#linear-gradient)"/><rect x="11.96" y="2.66" width="15.11" height="9.99" transform="translate(-0.03 0.07) rotate(-0.21)" style="fill:url(#linear-gradient-19)"/></g></g></g></svg>