<svg xmlns="http://www.w3.org/2000/svg" viewBox="0 0 25.17 28.08"><g id="Layer_2" data-name="Layer 2"><g id="Layer_1-2" data-name="Layer 1"><path d="M17.87,12.07A1.09,1.09,0,0,0,16.78,11H5.48a1.1,1.1,0,1,0,0,2.19h11.3A1.09,1.09,0,0,0,17.87,12.07Z" style="fill:#fff"/><path d="M5.48,15.36a1.1,1.1,0,1,0,0,2.19h6.86a1.1,1.1,0,1,0,0-2.19Z" style="fill:#fff"/><path d="M8.06,25.89H4.39a2.21,2.21,0,0,1-2.2-2.2V4.39a2.21,2.21,0,0,1,2.2-2.2H17.87a2.21,2.21,0,0,1,2.2,2.2v6.74a1.1,1.1,0,1,0,2.19,0V4.39A4.4,4.4,0,0,0,17.87,0H4.39A4.4,4.4,0,0,0,0,4.39v19.3a4.4,4.4,0,0,0,4.39,4.39H8.06a1.1,1.1,0,0,0,0-2.19Z" style="fill:#fff"/><path d="M24.2,15.88a3.3,3.3,0,0,0-4.65,0l-6,6a1.14,1.14,0,0,0-.28.46l-1.31,4.32A1.1,1.1,0,0,0,13,28.08a1,1,0,0,0,.3,0l4.42-1.23a1,1,0,0,0,.48-.28l6-6A3.29,3.29,0,0,0,24.2,15.88Zm-7.35,8.9-2.23.61.65-2.14,4.07-4.06,1.55,1.56Zm5.8-5.8-.21.22-1.55-1.56.21-.21a1.11,1.11,0,0,1,1.55,0A1.09,1.09,0,0,1,22.65,19Z" style="fill:#fff"/><path d="M16.78,6.58H5.48a1.1,1.1,0,0,0,0,2.2h11.3a1.1,1.1,0,0,0,0-2.2Z" style="fill:#fff"/></g></g></svg>