<svg xmlns="http://www.w3.org/2000/svg" xmlns:xlink="http://www.w3.org/1999/xlink" viewBox="0 0 30.25 30.25"><defs><linearGradient id="linear-gradient" y1="17.65" x2="25.21" y2="17.65" gradientUnits="userSpaceOnUse"><stop offset="0" stop-color="#328aa2"/><stop offset="1" stop-color="#00aee5"/></linearGradient><linearGradient id="linear-gradient-2" x1="4.41" y1="17.65" x2="20.8" y2="17.65" xlink:href="#linear-gradient"/><linearGradient id="linear-gradient-3" x1="8.82" y1="17.65" x2="16.39" y2="17.65" xlink:href="#linear-gradient"/><linearGradient id="linear-gradient-4" x1="11.66" y1="12.92" x2="23" y2="12.92" xlink:href="#linear-gradient"/><linearGradient id="linear-gradient-5" x1="21.43" y1="4.41" x2="30.25" y2="4.41" xlink:href="#linear-gradient"/></defs><g id="Layer_2" data-name="Layer 2"><g id="Layer_1-2" data-name="Layer 1"><path d="M23.29,11l-1.84,1.84a10.1,10.1,0,1,1-4-4L19.28,7a12.62,12.62,0,1,0,4,4Z" style="fill:url(#linear-gradient)"/><path d="M20,14.22l-2,2a5.12,5.12,0,0,1,.21,1.47A5.68,5.68,0,1,1,12.6,12a5.12,5.12,0,0,1,1.47.21l2-2a8,8,0,0,0-3.43-.76,8.2,8.2,0,1,0,8.2,8.2A8,8,0,0,0,20,14.22Z" style="fill:url(#linear-gradient-2)"/><path d="M12.6,21.43a3.79,3.79,0,1,1,3.79-3.78A3.79,3.79,0,0,1,12.6,21.43Zm0-5a1.26,1.26,0,1,0,1.26,1.26A1.26,1.26,0,0,0,12.6,16.39Z" style="fill:url(#linear-gradient-3)"/><path d="M12.6,18.59a.9.9,0,0,1-.66-.28.94.94,0,0,1,0-1.33l9.45-9.46a.95.95,0,1,1,1.34,1.34l-9.46,9.45a.91.91,0,0,1-.67.28Z" style="fill:url(#linear-gradient-4)"/><path d="M25.52,8.82H22.37a.94.94,0,0,1-.94-.94V4.73a1,1,0,0,1,.27-.67L25.49.28a1,1,0,0,1,1-.21,1,1,0,0,1,.58.87V3.15h2.21A.94.94,0,0,1,30,4.76L26.19,8.55a1,1,0,0,1-.67.27Z" style="fill:url(#linear-gradient-5)"/></g></g></svg>