<svg xmlns="http://www.w3.org/2000/svg" viewBox="0 0 29.91 29.9"><g id="Layer_2" data-name="Layer 2"><g id="Layer_1-2" data-name="Layer 1"><g id="Page-1"><g id="_035---Creative-Thinking" data-name="035---Creative-Thinking"><path id="Shape" d="M20.17,9.14,17.49,9c-.08.53-.14,1-.2,1.54l.2,0a11.43,11.43,0,0,0,2.68.13C20.18,10.15,20.19,9.64,20.17,9.14Z" style="fill:#fff"/><path id="Shape-2" data-name="Shape" d="M17.35,11.61l-.16,0a24.1,24.1,0,0,0-.06,2.69,7.31,7.31,0,0,1,2.36-.4l.4,0c.1-.75.18-1.46.23-2.15l-.69,0A16.06,16.06,0,0,1,17.35,11.61Z" style="fill:#fff"/><path id="Shape-3" data-name="Shape" d="M8.34,0a.18.18,0,0,0-.13.16L8.12,2.57A1.93,1.93,0,0,0,9,2.6a1.71,1.71,0,0,0,.72-.4L8.52.09A.17.17,0,0,0,8.34,0Z" style="fill:#fff"/><path id="Shape-4" data-name="Shape" d="M10.9,10.93a.54.54,0,0,1,.64.39l1.52,6.51a7.71,7.71,0,0,1,.8-1.24L11.48,6.4a2.6,2.6,0,0,1-.93.71l.38,1.61a.53.53,0,0,1-.15.52.54.54,0,0,1-.53.12A.53.53,0,0,1,9.89,9L9.51,7.35h-.1a2.55,2.55,0,0,1-1.05-.23l2.35,10a6.79,6.79,0,0,1,1.16.29L10.5,11.57A.52.52,0,0,1,10.9,10.93Z" style="fill:#fff"/><path id="Shape-5" data-name="Shape" d="M21.49,4.61A7.16,7.16,0,0,0,19.56.78a8.06,8.06,0,0,1-2.33,3.9,2.23,2.23,0,0,0,0,3.21l3.13.2A4.8,4.8,0,0,0,21.49,4.61Zm-1.9,2.7a.56.56,0,0,1-.48-.3.52.52,0,0,1,.06-.56,3,3,0,0,0,.53-2.22.52.52,0,0,1,.13-.53.53.53,0,0,1,.9.25A4,4,0,0,1,20,7.09.53.53,0,0,1,19.59,7.31Z" style="fill:#fff"/><path id="Shape-6" data-name="Shape" d="M28.27,7.2,26,8.6a10.45,10.45,0,0,1-.72,2.9,2.18,2.18,0,0,0,1.22,1.27,2.22,2.22,0,0,0,1.77,0,10.38,10.38,0,0,1,1.54-2.56l-.59-2.57-.79,1.91a.52.52,0,0,1-.7.29.54.54,0,0,1-.29-.7Z" style="fill:#fff"/><path id="Shape-7" data-name="Shape" d="M26.06,18.13,27.77,14l-.33,0a3.41,3.41,0,0,1-1.3-.28,3.21,3.21,0,0,1-1.33-1l-1,2.5A7.29,7.29,0,0,1,26.06,18.13Z" style="fill:#fff"/><path id="Shape-8" data-name="Shape" d="M26.7,23.49a3.43,3.43,0,0,0-.71.08.55.55,0,0,1-.51-.16.52.52,0,0,1-.11-.52,6.14,6.14,0,0,0-11.62-4,.55.55,0,0,1-.35.33.52.52,0,0,1-.47-.09,5.08,5.08,0,0,0-8.12,4,.57.57,0,0,1-.22.42.53.53,0,0,1-.47.08A3.21,3.21,0,1,0,3.2,29.9H26.7a3.21,3.21,0,1,0,0-6.41Zm-18-2.7a1.83,1.83,0,0,0-1.24,1.63.54.54,0,1,1-1.07,0,2.89,2.89,0,0,1,2-2.64.53.53,0,0,1,.34,1Zm6.78-2.24A3.33,3.33,0,0,1,18.69,16a.54.54,0,0,1,0,1.07,2.3,2.3,0,0,0-2.16,1.73.53.53,0,0,1-.52.41l-.13,0A.54.54,0,0,1,15.5,18.55Zm5.55,7.2a.53.53,0,0,1-.41,0,.55.55,0,0,1-.3-.28,1.59,1.59,0,0,0-1.45-.93,1.55,1.55,0,0,0-1,.35l-.06,0a.1.1,0,0,1-.05,0h0a.44.44,0,0,1-.3,0l-.1,0-.08,0-.09-.07,0,0,0-.05,0-.05a2.09,2.09,0,0,0-1.93-1.23A2.13,2.13,0,0,0,13,25.63a2.26,2.26,0,0,0,.17.85.53.53,0,0,1,0,.41.6.6,0,0,1-.29.3.78.78,0,0,1-.21,0,.53.53,0,0,1-.49-.33A3.28,3.28,0,0,1,12,25.63a3.19,3.19,0,0,1,5.79-1.87,2.56,2.56,0,0,1,1.15-.27,2.68,2.68,0,0,1,2.43,1.56.55.55,0,0,1,0,.4A.49.49,0,0,1,21.05,25.75Z" style="fill:#fff"/><path id="Shape-9" data-name="Shape" d="M9.8,6.24a1.76,1.76,0,0,0,1.28-1.43l-.9-1.66a2.63,2.63,0,0,1-1,.49,1.66,1.66,0,0,1-.54.06,2.59,2.59,0,0,1-.56-.05L8,5.53A1.75,1.75,0,0,0,9.8,6.24Z" style="fill:#fff"/></g></g></g></g></svg>