<svg xmlns="http://www.w3.org/2000/svg" xmlns:xlink="http://www.w3.org/1999/xlink" viewBox="0 0 25.64 28.7"><defs><linearGradient id="linear-gradient" x1="0.56" y1="13.69" x2="11.58" y2="13.69" gradientUnits="userSpaceOnUse"><stop offset="0" stop-color="#328aa2"/><stop offset="1" stop-color="#00aee5"/></linearGradient><linearGradient id="linear-gradient-2" x1="11.02" y1="13.92" x2="11.58" y2="13.92" xlink:href="#linear-gradient"/><linearGradient id="linear-gradient-3" x1="2.45" y1="20.72" x2="11.58" y2="20.72" xlink:href="#linear-gradient"/><linearGradient id="linear-gradient-4" x1="0" y1="13.69" x2="12.14" y2="13.69" xlink:href="#linear-gradient"/><linearGradient id="linear-gradient-5" x1="3.6" y1="3.04" x2="8.55" y2="3.04" xlink:href="#linear-gradient"/><linearGradient id="linear-gradient-6" x1="5.6" y1="3.04" x2="8.55" y2="3.04" xlink:href="#linear-gradient"/><linearGradient id="linear-gradient-7" x1="3.04" y1="3.04" x2="9.11" y2="3.04" xlink:href="#linear-gradient"/><linearGradient id="linear-gradient-8" x1="14.06" y1="19.96" x2="25.08" y2="19.96" xlink:href="#linear-gradient"/><linearGradient id="linear-gradient-9" x1="15.95" y1="21.87" x2="25.08" y2="21.87" xlink:href="#linear-gradient"/><linearGradient id="linear-gradient-10" x1="24.52" y1="20.19" x2="25.08" y2="20.19" xlink:href="#linear-gradient"/><linearGradient id="linear-gradient-11" x1="13.5" y1="19.96" x2="25.64" y2="19.96" xlink:href="#linear-gradient"/><linearGradient id="linear-gradient-12" x1="17.1" y1="9.3" x2="22.05" y2="9.3" xlink:href="#linear-gradient"/><linearGradient id="linear-gradient-13" x1="19.1" y1="9.3" x2="22.05" y2="9.3" xlink:href="#linear-gradient"/><linearGradient id="linear-gradient-14" x1="16.54" y1="9.31" x2="22.61" y2="9.31" xlink:href="#linear-gradient"/></defs><g id="Layer_2" data-name="Layer 2"><g id="Layer_1-2" data-name="Layer 1"><path d="M10.26,5.51H1.88A1.32,1.32,0,0,0,.56,6.83V21.88h11v-15A1.32,1.32,0,0,0,10.26,5.51ZM11,21.32H1.12V6.83a.76.76,0,0,1,.76-.76h8.38a.76.76,0,0,1,.76.76Z" style="fill:url(#linear-gradient)"/><rect x="11.02" y="10.6" width="0.56" height="6.65" style="fill:url(#linear-gradient-2)"/><polygon points="11.58 19.56 11.58 21.88 2.45 21.88 2.45 21.32 11.02 21.32 11.02 19.56 11.58 19.56" style="fill:url(#linear-gradient-3)"/><path d="M10.26,5H1.88A1.88,1.88,0,0,0,0,6.83V21.88a.56.56,0,0,0,.56.56h11a.56.56,0,0,0,.56-.56v-15A1.88,1.88,0,0,0,10.26,5ZM11,21.32H1.12V6.83a.76.76,0,0,1,.76-.76h8.38a.76.76,0,0,1,.76.76Z" style="fill:url(#linear-gradient-4)"/><rect x="3.6" y="0.56" width="4.95" height="4.95" style="fill:url(#linear-gradient-5)"/><rect x="5.6" y="0.56" width="2.95" height="4.95" style="fill:url(#linear-gradient-6)"/><path d="M8.55,0h-5A.56.56,0,0,0,3,.56V5.51a.56.56,0,0,0,.56.56h5a.56.56,0,0,0,.56-.56V.56A.56.56,0,0,0,8.55,0ZM8,5H4.16V1.12H8Z" style="fill:url(#linear-gradient-7)"/><path d="M23.77,11.78H15.38a1.32,1.32,0,0,0-1.32,1.32v15h11v-15A1.32,1.32,0,0,0,23.77,11.78Zm.75,5.09V27.58h-9.9V13.1a.76.76,0,0,1,.76-.76h8.39a.76.76,0,0,1,.75.76v2.5H16v1.27Z" style="fill:url(#linear-gradient-8)"/><polygon points="25.08 15.6 25.08 28.14 15.95 28.14 15.95 27.58 24.52 27.58 24.52 16.87 15.95 16.87 15.95 15.6 25.08 15.6" style="fill:url(#linear-gradient-9)"/><rect x="24.52" y="16.87" width="0.56" height="6.65" style="fill:url(#linear-gradient-10)"/><path d="M23.77,11.22H15.38A1.88,1.88,0,0,0,13.5,13.1v15a.56.56,0,0,0,.56.56h11a.56.56,0,0,0,.56-.56v-15A1.88,1.88,0,0,0,23.77,11.22Zm.75,16.36h-9.9V13.1a.76.76,0,0,1,.76-.76h8.39a.76.76,0,0,1,.75.76Z" style="fill:url(#linear-gradient-11)"/><rect x="17.1" y="6.83" width="4.95" height="4.95" style="fill:url(#linear-gradient-12)"/><rect x="19.1" y="6.83" width="2.95" height="4.95" style="fill:url(#linear-gradient-13)"/><path d="M22.05,6.27H17.1a.56.56,0,0,0-.56.56v4.95a.56.56,0,0,0,.56.56h4.95a.56.56,0,0,0,.56-.56V6.83A.56.56,0,0,0,22.05,6.27Zm-.56,5H17.66V7.39h3.83Z" style="fill:url(#linear-gradient-14)"/></g></g></svg>