<svg xmlns="http://www.w3.org/2000/svg" xmlns:xlink="http://www.w3.org/1999/xlink" viewBox="0 0 27.4 24.1"><defs><linearGradient id="linear-gradient" y1="12.05" x2="27.4" y2="12.05" gradientUnits="userSpaceOnUse"><stop offset="0" stop-color="#328aa2"/><stop offset="1" stop-color="#00aee5"/></linearGradient><linearGradient id="linear-gradient-2" x1="5.47" y1="12.92" x2="11.48" y2="12.92" xlink:href="#linear-gradient"/><linearGradient id="linear-gradient-3" x1="15.92" y1="12.94" x2="21.92" y2="12.94" xlink:href="#linear-gradient"/><linearGradient id="linear-gradient-4" x1="12.14" y1="12.87" x2="15.27" y2="12.87" xlink:href="#linear-gradient"/></defs><g id="Layer_2" data-name="Layer 2"><g id="Layer_1-2" data-name="Layer 1"><path d="M13.7,24.1h-12A1.65,1.65,0,0,1,0,22.36c0-2.89,0-5.78,0-8.66s0-6,0-8.93c0-1,0-2.1,0-3.15A1.62,1.62,0,0,1,1.67,0H25.73A1.64,1.64,0,0,1,27.4,1.65c0,2.15,0,4.31,0,6.47,0,2.32,0,4.64,0,7s0,4.93,0,7.4a1.61,1.61,0,0,1-1.66,1.61ZM1.66,4.4v18H25.73V4.4Zm17-3.27a1.11,1.11,0,0,0-1.1,1.08,1.12,1.12,0,0,0,1.08,1.08,1.1,1.1,0,0,0,1.1-1.09A1.07,1.07,0,0,0,18.63,1.13ZM23.57,2.2a1.08,1.08,0,0,0,1.06,1.08,1.11,1.11,0,0,0,1.12-1.07,1.11,1.11,0,0,0-1.11-1.08A1.06,1.06,0,0,0,23.57,2.2Zm-3,0a1.06,1.06,0,0,0,1.08,1.12,1.07,1.07,0,0,0,1.05-1.06,1.05,1.05,0,0,0-1.06-1.1A1,1,0,0,0,20.58,2.17Z" style="fill:url(#linear-gradient)"/><path d="M11.47,9.61c0,.54,0,1,0,1.53,0,.1-.14.23-.25.27-1.23.48-2.48.95-3.72,1.42l-.13.09c1.27.5,2.52,1,3.78,1.48.25.1.36.21.34.5s0,.85,0,1.33l-1.36-.57c-1.46-.64-2.92-1.28-4.38-1.9-.2-.09-.27-.19-.25-.39a3,3,0,0,0,0-.73c-.05-.37.12-.51.44-.64L11.3,9.67Z" style="fill:url(#linear-gradient-2)"/><path d="M21.92,13.65l-6,2.6c0-.56,0-1.07,0-1.57,0-.07.12-.17.2-.2L19.85,13l.21-.1-3.81-1.47c-.24-.09-.35-.19-.33-.46,0-.43,0-.86,0-1.35l1.51.65c1.42.61,2.85,1.21,4.27,1.83a.46.46,0,0,1,.2.32C21.93,12.82,21.92,13.22,21.92,13.65Z" style="fill:url(#linear-gradient-3)"/><path d="M15.27,9c-.13.53-.27,1.12-.41,1.71q-.72,3-1.46,6c-.13.53-.35.69-.76.63s-.57-.3-.47-.74c.37-1.57.75-3.15,1.13-4.73.23-1,.46-1.94.71-2.91.14-.55.42-.71.87-.57C15.16,8.5,15.26,8.69,15.27,9Z" style="fill:url(#linear-gradient-4)"/></g></g></svg>