<svg xmlns="http://www.w3.org/2000/svg" viewBox="0 0 13.77 13.65"><defs><style>.cls-1{fill:#eef3a1;}.cls-2{fill:#ed1458;}.cls-3{fill:#3cdeb3;}.cls-4{fill:#f8ba44;}.cls-5{fill:#113f80;}</style></defs><g id="Layer_2" data-name="Layer 2"><g id="Layer_1-2" data-name="Layer 1"><circle class="cls-1" cx="5.78" cy="7.86" r="5.78"/><circle class="cls-2" cx="5.78" cy="7.86" r="4.93"/><circle class="cls-3" cx="5.78" cy="7.86" r="4.04"/><circle class="cls-1" cx="5.78" cy="7.86" r="4.04"/><path class="cls-2" d="M7.93,5.72a3,3,0,1,1-4.29,0A3,3,0,0,1,7.93,5.72Z"/><circle class="cls-1" cx="5.78" cy="7.86" r="2.08"/><path class="cls-2" d="M6.58,7.06A1.13,1.13,0,1,1,5,8.67,1.15,1.15,0,0,1,5,7.06,1.13,1.13,0,0,1,6.58,7.06Z"/><polygon class="cls-4" points="12.44 1.33 10.98 2.78 10.68 1.46 12.13 0 12.44 1.33"/><polygon class="cls-4" points="12.44 1.33 10.98 2.78 12.31 3.09 13.77 1.63 12.44 1.33"/><path class="cls-5" d="M12.67.84,5.8,7.7A.2.2,0,0,0,5.8,8a.19.19,0,0,0,.26,0L12.93,1.1a.19.19,0,0,0,0-.26A.17.17,0,0,0,12.67.84Z"/></g></g></svg>