<svg xmlns="http://www.w3.org/2000/svg" viewBox="0 0 13.22 17.81"><defs><style>.cls-1{fill:#f8ba44;}.cls-2{fill:#6eddd2;}.cls-3{fill:#b3ece6;}.cls-4{fill:#e76025;}</style></defs><g id="Layer_2" data-name="Layer 2"><g id="Layer_1-2" data-name="Layer 1"><rect class="cls-1" x="8.24" y="9.01" width="1.43" height="4.6" transform="translate(-4.45 5.98) rotate(-29.96)"/><circle class="cls-1" cx="5.76" cy="5.76" r="5.76"/><path class="cls-2" d="M9.6,3.54A4.44,4.44,0,1,1,3.54,1.91,4.43,4.43,0,0,1,9.6,3.54Z"/><path class="cls-3" d="M9.24,8.51,1.32,5.79a4.51,4.51,0,0,0,.11,1l7,2.53A4.55,4.55,0,0,0,9.24,8.51Z"/><path class="cls-3" d="M2.67,2.57A4.45,4.45,0,0,0,1.43,4.78L9.79,7.6a4.43,4.43,0,0,0,.39-2.19Z"/><rect class="cls-4" x="10.02" y="11.99" width="2.05" height="5.9" rx="0.53" transform="translate(-5.98 7.51) rotate(-29.96)"/></g></g></svg>