<svg xmlns="http://www.w3.org/2000/svg" xmlns:xlink="http://www.w3.org/1999/xlink" viewBox="0 0 388.12 88.4"><defs><style>.cls-1{fill:url(#linear-gradient);}.cls-2{fill:#f7c518;}.cls-3{fill:#fff;}</style><linearGradient id="linear-gradient" x1="-826.41" y1="-8.48" x2="-1348.74" y2="193.5" gradientTransform="matrix(-1, 0, 0, 1, -855.16, 0)" gradientUnits="userSpaceOnUse"><stop offset="0.2" stop-color="#13a0cb"/><stop offset="0.44" stop-color="#58bcda"/><stop offset="1" stop-color="#fff"/></linearGradient></defs><g id="Layer_2" data-name="Layer 2"><g id="Layer_1-2" data-name="Layer 1"><path class="cls-1" d="M156.13,40.1C86.79,22.46,31.86,39.33,0,54.79V88.4c10.12-9.13,74.07-62.13,166.4-34.22C240.71,76.64,341,93.3,388.12,67,331.47,82.72,231.73,59.33,156.13,40.1Z"/><path class="cls-2" d="M25.32,37.37a3,3,0,1,1,3.79-2A3,3,0,0,1,25.32,37.37Zm1.24-3.93a1.1,1.1,0,1,0,.72,1.38A1.09,1.09,0,0,0,26.56,33.44Z"/><path class="cls-2" d="M31.81,35.35a3,3,0,1,1,3.79-2A3,3,0,0,1,31.81,35.35Zm1.24-3.93a1.1,1.1,0,1,0,.72,1.38A1.11,1.11,0,0,0,33.05,31.42Z"/><path class="cls-3" d="M40,17.69a46.16,46.16,0,0,1-3.5,5.51C30,32,20.06,33.26,15.36,26.84c-2.79-3.8-3.29-9.57-1.8-15.39-.27,4.1.54,7.91,2.57,10.67,3.18,4.34,8.52,5,13.79,2.37-11.63,4.27-13.65-9.7-14.3-12.4-.72-3-3-8.26-8-2.64,0,0,.22-4,2.42-5.92a5.79,5.79,0,0,1,8.9,1.93c1.93,3.82,2.24,9.73,4.11,13.15a6.58,6.58,0,0,0,.56.88,4.3,4.3,0,0,0,4.54,1.72,11.16,11.16,0,0,0,6.07,0c.3-.1.61-.19.91-.3a12.71,12.71,0,0,0,3.44-2A14.41,14.41,0,0,0,40,17.69Z"/><path class="cls-3" d="M40.72,15.37c-.38.25-.77.49-1.16.72s-.76.43-1.15.63a20.24,20.24,0,0,1-2.09.9,12.6,12.6,0,0,1-3.26.72C40,13.76,43.73,3.77,43.73,3.77S44.16,8.3,40.72,15.37Z"/><path class="cls-2" d="M30.48,17.88a18.1,18.1,0,0,0,3.78-2.38A15.93,15.93,0,0,0,36,13.9a13.58,13.58,0,0,0,1.53-2A10.51,10.51,0,0,0,38.54,9.6a6.31,6.31,0,0,0,.3-1.23c.06-.07,0-.17,0-.25a7.53,7.53,0,0,0,0-2.55,7,7,0,0,0-.61-1.83,6.13,6.13,0,0,0-1-1.44,6.52,6.52,0,0,0-2-1.51A7.16,7.16,0,0,0,33,.07a7.8,7.8,0,0,0-2.55.09,10.28,10.28,0,0,0-2.86,1,8.69,8.69,0,0,0-1.28.77,10.36,10.36,0,0,0-1.81,1.56A9.84,9.84,0,0,0,22,8.61a12.4,12.4,0,0,0,.17,4.78,17.7,17.7,0,0,0,1.47,4.09.17.17,0,0,0,.21.12A14.51,14.51,0,0,0,26.51,17a9.3,9.3,0,0,0,1.77-.77.17.17,0,0,0,.09-.26,16.06,16.06,0,0,1-1.09-3.64v0l-.06-.52A8.19,8.19,0,0,1,27.28,9,5.23,5.23,0,0,1,28.6,6.41a4.63,4.63,0,0,1,2-1.27,3.08,3.08,0,0,1,2.91.53A3.16,3.16,0,0,1,34.69,9,8.14,8.14,0,0,1,34,10.75a13.09,13.09,0,0,1-1.51,2.42,12.64,12.64,0,0,1-4.95,4,12,12,0,0,1-3.66,1,14.39,14.39,0,0,1-2.86,0l-.9-.11a.33.33,0,0,0,.17.12,9.67,9.67,0,0,0,2,.7,12,12,0,0,0,5.12.07A14,14,0,0,0,30.48,17.88Z"/><path class="cls-2" d="M41.23,15.46c-.53.35-1.06.69-1.6,1-.37.22-.76.43-1.15.63a16.82,16.82,0,0,1-2.09.89,11.83,11.83,0,0,1-3.26.72,4,4,0,0,1-.77,0,4.35,4.35,0,0,1-1.6-.28c-.1,0-.17,0-.25,0a13.2,13.2,0,0,1-1.36.53,10,10,0,0,1-3.56.48c-.06,0-.12,0-.2.05a11.22,11.22,0,0,0,8.86,1.26c.3-.1.61-.19.9-.3a12.77,12.77,0,0,0,3.45-2,15.12,15.12,0,0,0,2.8-2.85,1.85,1.85,0,0,0,.38-.55A2.89,2.89,0,0,0,41.23,15.46Z"/></g></g></svg>