<svg xmlns="http://www.w3.org/2000/svg" viewBox="0 0 25.59 25.59"><g id="Layer_2" data-name="Layer 2"><g id="Layer_1-2" data-name="Layer 1"><g id="surface1"><path d="M3.11,8a.75.75,0,0,0-.75-.75H.75a.75.75,0,0,0,0,1.5H2.36A.76.76,0,0,0,3.11,8Z" style="fill:#fff"/><path d="M24.84,7.23H23.23a.75.75,0,0,0,0,1.5h1.61a.75.75,0,0,0,0-1.5Z" style="fill:#fff"/><path d="M3.38,12.55,2,13.35a.75.75,0,0,0,.75,1.3l1.39-.81a.75.75,0,0,0-.75-1.29Z" style="fill:#fff"/><path d="M21.83,3.51a.86.86,0,0,0,.38-.1L23.6,2.6a.74.74,0,0,0,.27-1,.75.75,0,0,0-1-.28l-1.39.81a.75.75,0,0,0,.37,1.4Z" style="fill:#fff"/><path d="M23.6,13.35l-1.39-.8a.75.75,0,1,0-.75,1.29l1.39.81a.74.74,0,0,0,.37.1.76.76,0,0,0,.65-.38A.74.74,0,0,0,23.6,13.35Z" style="fill:#fff"/><path d="M4.13,2.11,2.74,1.3a.76.76,0,0,0-1,.28A.75.75,0,0,0,2,2.6l1.39.81a.86.86,0,0,0,.37.1.76.76,0,0,0,.65-.38A.74.74,0,0,0,4.13,2.11Z" style="fill:#fff"/><path d="M7.39,19.16a2.39,2.39,0,0,0,0,1.72H18.2a2.39,2.39,0,0,0,0-1.72Z" style="fill:#fff"/><path d="M12.79,0A8,8,0,0,0,8,14.37v.08h2.41V11.5L9.36,10.42a.75.75,0,0,1,1.06-1.06l1.3,1.3a.75.75,0,0,1,.22.53v3.26h1.71V11.19a.75.75,0,0,1,.22-.53l1.3-1.3a.75.75,0,0,1,1.06,1.06L15.15,11.5v2.95h2.41v-.08A8,8,0,0,0,12.79,0Z" style="fill:#fff"/><path d="M7.39,16a2.27,2.27,0,0,0-.16.86,2.18,2.18,0,0,0,.16.85H18.2a2.38,2.38,0,0,0,.16-.85A2.48,2.48,0,0,0,18.2,16Z" style="fill:#fff"/><path d="M12.79,25.59a4,4,0,0,0,3.89-3.21H8.91A4,4,0,0,0,12.79,25.59Z" style="fill:#fff"/></g></g></g></svg>