<?xml version="1.0" encoding="UTF-8"?>
<svg id="Layer_2" data-name="Layer 2" xmlns="http://www.w3.org/2000/svg" xmlns:xlink="http://www.w3.org/1999/xlink" viewBox="0 0 46.41 466.45">
  <defs>
    <style>
      .cls-1 {
        fill: #fff;
      }

      .cls-2 {
        clip-path: url(#clippath);
      }

      .cls-3 {
        fill: none;
      }
    </style>
    <clipPath id="clippath">
      <path class="cls-3" d="m46.41,0C32.55,3.72,18.16,9.17,0,15.03v451.42c4.2-12.49,15.75-35.35,46.41-52.11V0Z"/>
    </clipPath>
  </defs>
  <g id="Layer_1-2" data-name="Layer 1">
    <g class="cls-2">
      <g>
        <g>
          <circle class="cls-1" cx="8.97" cy="216.63" r=".72"/>
          <path class="cls-1" d="m9.63,202.22c0,.37-.3.66-.66.66s-.66-.29-.66-.66.3-.66.66-.66.66.29.66.66Z"/>
          <path class="cls-1" d="m9.52,173.43c0,.3-.24.55-.55.55s-.55-.25-.55-.55c0-.3.25-.55.55-.55s.55.25.55.55Z"/>
          <path class="cls-1" d="m9.42,144.63c0,.25-.2.45-.45.45s-.44-.2-.44-.45.2-.44.44-.44.45.2.45.44Z"/>
          <path class="cls-1" d="m9.39,130.23c0,.23-.19.41-.42.41s-.41-.19-.41-.41.19-.41.41-.41.42.19.42.41Z"/>
          <path class="cls-1" d="m9.4,101.43c0,.24-.19.43-.43.43s-.43-.19-.43-.43c0-.24.2-.43.43-.43s.43.19.43.43Z"/>
          <path class="cls-1" d="m9.45,87.03c0,.26-.21.47-.47.47s-.47-.21-.47-.47.22-.47.47-.47.47.21.47.47Z"/>
          <path class="cls-1" d="m9.5,72.63c0,.29-.23.52-.53.52s-.52-.23-.52-.52.24-.52.52-.52.53.24.53.52Z"/>
          <path class="cls-1" d="m9.61,43.83c0,.35-.29.64-.64.64s-.64-.29-.64-.64.29-.63.64-.63.64.28.64.63Z"/>
          <circle class="cls-1" cx="8.97" cy="15.03" r=".76"/>
          <path class="cls-1" d="m23.75,216.63c0,.46-.38.84-.84.84s-.84-.38-.84-.84.38-.84.84-.84.84.38.84.84Z"/>
          <path class="cls-1" d="m23.62,173.43c0,.4-.32.72-.72.72s-.72-.32-.72-.72.32-.72.72-.72.72.32.72.72Z"/>
          <path class="cls-1" d="m23.59,159.03c0,.38-.31.69-.69.69s-.69-.31-.69-.69.31-.69.69-.69.69.3.69.69Z"/>
          <path class="cls-1" d="m23.56,130.23c0,.36-.29.65-.65.65s-.65-.29-.65-.65.29-.65.65-.65.65.29.65.65Z"/>
          <path class="cls-1" d="m23.56,101.43c0,.36-.29.66-.66.66s-.66-.3-.66-.66.3-.66.66-.66.66.3.66.66Z"/>
          <path class="cls-1" d="m23.68,43.83c0,.43-.35.78-.78.78s-.77-.35-.77-.78.35-.77.77-.77.78.35.78.77Z"/>
          <path class="cls-1" d="m23.73,29.43c0,.45-.37.82-.82.82s-.82-.36-.82-.82.37-.82.82-.82.82.37.82.82Z"/>
          <path class="cls-1" d="m37.86,216.63c0,.56-.45,1.02-1.02,1.02s-1.02-.46-1.02-1.02.46-1.02,1.02-1.02,1.02.46,1.02,1.02Z"/>
          <path class="cls-1" d="m37.78,173.43c0,.52-.42.94-.93.94s-.94-.42-.94-.94.42-.93.94-.93.93.42.93.93Z"/>
          <path class="cls-1" d="m37.76,159.03c0,.5-.41.91-.91.91s-.91-.41-.91-.91.41-.91.91-.91.91.41.91.91Z"/>
          <path class="cls-1" d="m37.74,144.63c0,.5-.4.9-.9.9s-.9-.4-.9-.9.4-.9.9-.9.9.4.9.9Z"/>
          <path class="cls-1" d="m37.74,130.23c0,.49-.4.89-.89.89s-.89-.4-.89-.89.4-.89.89-.89.89.4.89.89Z"/>
          <path class="cls-1" d="m37.75,87.03c0,.5-.41.91-.91.91s-.91-.41-.91-.91.41-.91.91-.91.91.41.91.91Z"/>
          <path class="cls-1" d="m37.77,72.63c0,.51-.41.93-.92.93s-.93-.41-.93-.93c0-.51.42-.93.93-.93s.92.42.92.93Z"/>
          <path class="cls-1" d="m37.82,43.83c0,.54-.44.97-.97.97s-.98-.44-.98-.97.44-.97.98-.97.97.44.97.97Z"/>
          <circle class="cls-1" cx="36.84" cy="29.43" r="1.01" transform="translate(6.95 65.89) rotate(-89.27)"/>
          <circle class="cls-1" cx="8.97" cy="216.63" r=".72"/>
          <path class="cls-1" d="m9.63,202.22c0,.37-.3.66-.66.66s-.66-.29-.66-.66.3-.66.66-.66.66.29.66.66Z"/>
          <path class="cls-1" d="m9.52,173.43c0,.3-.24.55-.55.55s-.55-.25-.55-.55c0-.3.25-.55.55-.55s.55.25.55.55Z"/>
          <path class="cls-1" d="m9.42,144.63c0,.25-.2.45-.45.45s-.44-.2-.44-.45.2-.44.44-.44.45.2.45.44Z"/>
          <path class="cls-1" d="m9.39,130.23c0,.23-.19.41-.42.41s-.41-.19-.41-.41.19-.41.41-.41.42.19.42.41Z"/>
          <path class="cls-1" d="m9.4,101.43c0,.24-.19.43-.43.43s-.43-.19-.43-.43c0-.24.2-.43.43-.43s.43.19.43.43Z"/>
          <path class="cls-1" d="m9.45,87.03c0,.26-.21.47-.47.47s-.47-.21-.47-.47.22-.47.47-.47.47.21.47.47Z"/>
          <path class="cls-1" d="m9.5,72.63c0,.29-.23.52-.53.52s-.52-.23-.52-.52.24-.52.52-.52.53.24.53.52Z"/>
          <path class="cls-1" d="m9.61,43.83c0,.35-.29.64-.64.64s-.64-.29-.64-.64.29-.63.64-.63.64.28.64.63Z"/>
          <circle class="cls-1" cx="8.97" cy="15.03" r=".76"/>
          <path class="cls-1" d="m23.75,216.63c0,.46-.38.84-.84.84s-.84-.38-.84-.84.38-.84.84-.84.84.38.84.84Z"/>
          <path class="cls-1" d="m23.62,173.43c0,.4-.32.72-.72.72s-.72-.32-.72-.72.32-.72.72-.72.72.32.72.72Z"/>
          <path class="cls-1" d="m23.59,159.03c0,.38-.31.69-.69.69s-.69-.31-.69-.69.31-.69.69-.69.69.3.69.69Z"/>
          <path class="cls-1" d="m23.56,130.23c0,.36-.29.65-.65.65s-.65-.29-.65-.65.29-.65.65-.65.65.29.65.65Z"/>
          <path class="cls-1" d="m23.56,101.43c0,.36-.29.66-.66.66s-.66-.3-.66-.66.3-.66.66-.66.66.3.66.66Z"/>
          <path class="cls-1" d="m23.68,43.83c0,.43-.35.78-.78.78s-.77-.35-.77-.78.35-.77.77-.77.78.35.78.77Z"/>
          <path class="cls-1" d="m23.73,29.43c0,.45-.37.82-.82.82s-.82-.36-.82-.82.37-.82.82-.82.82.37.82.82Z"/>
          <path class="cls-1" d="m37.86,216.63c0,.56-.45,1.02-1.02,1.02s-1.02-.46-1.02-1.02.46-1.02,1.02-1.02,1.02.46,1.02,1.02Z"/>
          <path class="cls-1" d="m37.78,173.43c0,.52-.42.94-.93.94s-.94-.42-.94-.94.42-.93.94-.93.93.42.93.93Z"/>
          <path class="cls-1" d="m37.76,159.03c0,.5-.41.91-.91.91s-.91-.41-.91-.91.41-.91.91-.91.91.41.91.91Z"/>
          <path class="cls-1" d="m37.74,144.63c0,.5-.4.9-.9.9s-.9-.4-.9-.9.4-.9.9-.9.9.4.9.9Z"/>
          <path class="cls-1" d="m37.74,130.23c0,.49-.4.89-.89.89s-.89-.4-.89-.89.4-.89.89-.89.89.4.89.89Z"/>
          <path class="cls-1" d="m37.75,87.03c0,.5-.41.91-.91.91s-.91-.41-.91-.91.41-.91.91-.91.91.41.91.91Z"/>
          <path class="cls-1" d="m37.77,72.63c0,.51-.41.93-.92.93s-.93-.41-.93-.93c0-.51.42-.93.93-.93s.92.42.92.93Z"/>
          <path class="cls-1" d="m37.82,43.83c0,.54-.44.97-.97.97s-.98-.44-.98-.97.44-.97.98-.97.97.44.97.97Z"/>
          <circle class="cls-1" cx="36.84" cy="29.43" r="1.01" transform="translate(6.95 65.89) rotate(-89.27)"/>
          <path class="cls-1" d="m11.11,216.63c0,1.18-.96,2.14-2.14,2.14s-2.13-.96-2.13-2.14c0-1.18.96-2.13,2.13-2.13s2.14.96,2.14,2.13Zm-4.11,0c0,1.09.88,1.97,1.97,1.97s1.97-.89,1.97-1.97-.89-1.97-1.97-1.97-1.97.89-1.97,1.97Z"/>
          <path class="cls-1" d="m11.15,202.23c0,1.2-.98,2.18-2.18,2.18s-2.18-.98-2.18-2.18c0-1.2.98-2.18,2.18-2.18s2.18.98,2.18,2.18Zm-4.21,0c0,1.12.91,2.03,2.03,2.03s2.03-.91,2.03-2.03-.91-2.03-2.03-2.03-2.03.91-2.03,2.03Z"/>
          <path class="cls-1" d="m10.12,173.43c0,.63-.51,1.14-1.14,1.14s-1.14-.51-1.14-1.14.51-1.14,1.14-1.14,1.14.51,1.14,1.14Zm-2.16,0c0,.56.46,1.02,1.02,1.02s1.02-.46,1.02-1.02-.46-1.02-1.02-1.02-1.02.46-1.02,1.02Z"/>
          <path class="cls-1" d="m10.97,159.03c0,1.1-.89,1.99-1.99,1.99s-1.99-.89-1.99-1.99.9-1.99,1.99-1.99,1.99.89,1.99,1.99Zm-3.87,0c0,1.04.84,1.88,1.88,1.88s1.88-.84,1.88-1.88c0-1.04-.84-1.88-1.88-1.88s-1.88.85-1.88,1.88Z"/>
          <path class="cls-1" d="m10.27,144.63c0,.72-.58,1.3-1.3,1.3s-1.3-.58-1.3-1.3.58-1.3,1.3-1.3,1.3.58,1.3,1.3Zm-2.49,0c0,.66.54,1.19,1.19,1.19s1.19-.53,1.19-1.19-.53-1.19-1.19-1.19-1.19.54-1.19,1.19Z"/>
          <path class="cls-1" d="m10.49,130.23c0,.84-.68,1.52-1.52,1.52s-1.52-.68-1.52-1.52.68-1.52,1.52-1.52,1.52.69,1.52,1.52Zm-2.94,0c0,.78.63,1.43,1.42,1.43s1.43-.64,1.43-1.43-.64-1.43-1.43-1.43-1.42.64-1.42,1.43Z"/>
          <path class="cls-1" d="m10.2,115.83c0,.67-.55,1.22-1.22,1.22s-1.22-.55-1.22-1.22.55-1.22,1.22-1.22,1.22.55,1.22,1.22Zm-2.35,0c0,.62.51,1.13,1.13,1.13s1.13-.51,1.13-1.13-.51-1.13-1.13-1.13-1.13.5-1.13,1.13Z"/>
          <path class="cls-1" d="m9.87,101.43c0,.5-.4.9-.89.9s-.89-.4-.89-.9.4-.89.89-.89.89.4.89.89Zm-1.69,0c0,.44.36.8.79.8s.8-.36.8-.8-.36-.8-.8-.8-.79.36-.79.8Z"/>
          <path class="cls-1" d="m9.85,87.03c0,.48-.39.88-.88.88s-.88-.39-.88-.88.39-.88.88-.88.88.39.88.88Zm-1.64,0c0,.42.34.77.77.77s.77-.35.77-.77-.35-.77-.77-.77-.77.35-.77.77Z"/>
          <path class="cls-1" d="m10.78,72.63c0,.99-.81,1.8-1.8,1.8s-1.8-.81-1.8-1.8.81-1.8,1.8-1.8,1.8.81,1.8,1.8Zm-3.48,0c0,.93.75,1.68,1.68,1.68s1.69-.76,1.69-1.68-.75-1.68-1.69-1.68-1.68.75-1.68,1.68Z"/>
          <path class="cls-1" d="m10.35,58.23c0,.76-.62,1.38-1.38,1.38s-1.38-.62-1.38-1.38.62-1.38,1.38-1.38,1.38.62,1.38,1.38Zm-2.63,0c0,.69.56,1.25,1.25,1.25s1.25-.56,1.25-1.25-.56-1.25-1.25-1.25-1.25.56-1.25,1.25Z"/>
          <path class="cls-1" d="m10.81,29.43c0,1.01-.83,1.84-1.84,1.84s-1.84-.83-1.84-1.84.83-1.84,1.84-1.84,1.84.83,1.84,1.84Zm-3.52,0c0,.92.75,1.68,1.68,1.68s1.69-.76,1.69-1.68-.76-1.68-1.69-1.68-1.68.76-1.68,1.68Z"/>
          <path class="cls-1" d="m26.5,216.63c0,1.98-1.61,3.59-3.59,3.59s-3.59-1.61-3.59-3.59c0-1.98,1.61-3.59,3.59-3.59s3.59,1.61,3.59,3.59Zm-6.99,0c0,1.88,1.52,3.4,3.4,3.4s3.4-1.52,3.4-3.4-1.52-3.4-3.4-3.4-3.4,1.52-3.4,3.4Z"/>
          <path class="cls-1" d="m26.2,202.23c0,1.82-1.48,3.29-3.29,3.29s-3.29-1.48-3.29-3.29,1.48-3.29,3.29-3.29,3.29,1.48,3.29,3.29Zm-6.4,0c0,1.71,1.4,3.11,3.11,3.11s3.11-1.4,3.11-3.11-1.4-3.12-3.11-3.12-3.11,1.4-3.11,3.12Z"/>
          <path class="cls-1" d="m25.3,187.83c0,1.32-1.08,2.4-2.4,2.4s-2.4-1.08-2.4-2.4,1.08-2.4,2.4-2.4,2.4,1.08,2.4,2.4Zm-4.62,0c0,1.23,1,2.23,2.23,2.23s2.23-1,2.23-2.23-1-2.23-2.23-2.23-2.23,1-2.23,2.23Z"/>
          <path class="cls-1" d="m24.26,173.43c0,.75-.61,1.35-1.36,1.35s-1.35-.61-1.35-1.35.61-1.35,1.35-1.35,1.36.61,1.36,1.35Zm-2.55,0c0,.66.54,1.19,1.19,1.19s1.19-.53,1.19-1.19-.54-1.19-1.19-1.19-1.19.53-1.19,1.19Z"/>
          <path class="cls-1" d="m24.18,159.03c0,.7-.57,1.27-1.27,1.27s-1.27-.57-1.27-1.27.57-1.27,1.27-1.27,1.27.57,1.27,1.27Zm-2.38,0c0,.61.5,1.11,1.11,1.11s1.11-.5,1.11-1.11-.5-1.11-1.11-1.11-1.11.5-1.11,1.11Z"/>
          <path class="cls-1" d="m25.75,144.63c0,1.57-1.27,2.85-2.85,2.85s-2.84-1.28-2.84-2.85c0-1.57,1.27-2.84,2.84-2.84s2.85,1.27,2.85,2.84Zm-5.54,0c0,1.49,1.21,2.7,2.7,2.7s2.7-1.21,2.7-2.7-1.21-2.7-2.7-2.7-2.7,1.21-2.7,2.7Z"/>
          <path class="cls-1" d="m24.27,130.23c0,.75-.61,1.36-1.36,1.36s-1.36-.61-1.36-1.36c0-.75.61-1.36,1.36-1.36s1.36.61,1.36,1.36Zm-2.58,0c0,.67.55,1.21,1.21,1.21s1.22-.54,1.22-1.21-.55-1.21-1.22-1.21-1.21.55-1.21,1.21Z"/>
          <path class="cls-1" d="m24.67,115.83c0,.97-.79,1.76-1.76,1.76s-1.76-.79-1.76-1.76.79-1.76,1.76-1.76,1.76.79,1.76,1.76Zm-3.37,0c0,.89.72,1.61,1.61,1.61s1.61-.72,1.61-1.61-.72-1.61-1.61-1.61-1.61.72-1.61,1.61Z"/>
          <path class="cls-1" d="m24.58,101.43c0,.92-.75,1.67-1.67,1.67s-1.66-.75-1.66-1.67c0-.92.75-1.66,1.66-1.66s1.67.75,1.67,1.66Zm-3.18,0c0,.84.68,1.52,1.52,1.52s1.52-.68,1.52-1.52-.68-1.51-1.52-1.51-1.52.68-1.52,1.51Z"/>
          <path class="cls-1" d="m25.26,87.03c0,1.3-1.05,2.35-2.35,2.35s-2.35-1.05-2.35-2.35c0-1.3,1.05-2.35,2.35-2.35s2.35,1.05,2.35,2.35Zm-4.55,0c0,1.21.99,2.2,2.2,2.2s2.2-.99,2.2-2.2-.99-2.2-2.2-2.2-2.2.99-2.2,2.2Z"/>
          <path class="cls-1" d="m24.77,72.63c0,1.02-.83,1.86-1.86,1.86s-1.85-.83-1.85-1.86.83-1.85,1.85-1.85,1.86.83,1.86,1.85Zm-3.56,0c0,.94.76,1.7,1.7,1.7s1.7-.76,1.7-1.7-.76-1.7-1.7-1.7-1.7.76-1.7,1.7Z"/>
          <path class="cls-1" d="m25.15,58.23c0,1.23-1,2.24-2.24,2.24s-2.24-1-2.24-2.24c0-1.24,1.01-2.24,2.24-2.24s2.24,1,2.24,2.24Zm-4.31,0c0,1.14.93,2.07,2.07,2.07s2.07-.93,2.07-2.07-.93-2.07-2.07-2.07-2.07.93-2.07,2.07Z"/>
          <path class="cls-1" d="m26.32,43.83c0,1.88-1.53,3.42-3.41,3.42s-3.42-1.53-3.42-3.42c0-1.88,1.53-3.41,3.42-3.41s3.41,1.53,3.41,3.41Zm-6.65,0c0,1.79,1.45,3.24,3.24,3.24s3.24-1.45,3.24-3.24-1.45-3.24-3.24-3.24-3.24,1.45-3.24,3.24Z"/>
          <path class="cls-1" d="m25.09,29.43c0,1.2-.98,2.18-2.18,2.18s-2.18-.98-2.18-2.18.98-2.18,2.18-2.18,2.18.98,2.18,2.18Zm-4.18,0c0,1.1.9,1.99,2,1.99s2-.89,2-1.99-.9-2-2-2-2,.89-2,2Z"/>
          <path class="cls-1" d="m25.85,15.03c0,1.62-1.32,2.94-2.94,2.94s-2.94-1.32-2.94-2.94c0-1.62,1.32-2.94,2.94-2.94s2.94,1.32,2.94,2.94Zm-5.68,0c0,1.51,1.23,2.74,2.74,2.74s2.74-1.23,2.74-2.74-1.23-2.74-2.74-2.74-2.74,1.23-2.74,2.74Z"/>
          <path class="cls-1" d="m39.94,216.63c0,1.71-1.39,3.09-3.09,3.09s-3.1-1.39-3.1-3.09,1.39-3.1,3.1-3.1,3.09,1.39,3.09,3.1Zm-5.96,0c0,1.58,1.28,2.87,2.86,2.87s2.86-1.29,2.86-2.87-1.28-2.87-2.86-2.87-2.86,1.29-2.86,2.87Z"/>
          <path class="cls-1" d="m38.39,202.23c0,.85-.69,1.54-1.54,1.54s-1.55-.69-1.55-1.54.69-1.54,1.55-1.54,1.54.69,1.54,1.54Zm-2.86,0c0,.72.59,1.32,1.32,1.32s1.32-.59,1.32-1.32-.59-1.32-1.32-1.32-1.32.59-1.32,1.32Z"/>
          <path class="cls-1" d="m40.63,187.83c0,2.09-1.7,3.79-3.79,3.79s-3.79-1.7-3.79-3.79c0-2.09,1.7-3.79,3.79-3.79s3.79,1.7,3.79,3.79Zm-7.36,0c0,1.97,1.6,3.57,3.57,3.57s3.57-1.6,3.57-3.57-1.6-3.57-3.57-3.57-3.57,1.6-3.57,3.57Z"/>
          <path class="cls-1" d="m38.81,173.43c0,1.09-.88,1.97-1.97,1.97s-1.97-.88-1.97-1.97.89-1.97,1.97-1.97,1.97.88,1.97,1.97Zm-3.73,0c0,.97.79,1.76,1.76,1.76s1.76-.79,1.76-1.76c0-.97-.79-1.76-1.76-1.76s-1.76.79-1.76,1.76Z"/>
          <path class="cls-1" d="m40.44,159.03c0,1.98-1.62,3.59-3.6,3.59s-3.6-1.61-3.6-3.59,1.61-3.6,3.6-3.6,3.6,1.61,3.6,3.6Zm-6.99,0c0,1.87,1.52,3.39,3.39,3.39s3.39-1.52,3.39-3.39c0-1.87-1.52-3.39-3.39-3.39s-3.39,1.52-3.39,3.39Z"/>
          <path class="cls-1" d="m39.22,144.63c0,1.31-1.07,2.38-2.37,2.38s-2.38-1.07-2.38-2.38c0-1.31,1.07-2.37,2.38-2.37s2.37,1.07,2.37,2.37Zm-4.55,0c0,1.2.98,2.17,2.18,2.17s2.17-.97,2.17-2.17-.97-2.17-2.17-2.17-2.18.97-2.18,2.17Z"/>
          <path class="cls-1" d="m39.94,130.23c0,1.71-1.39,3.1-3.1,3.1s-3.1-1.39-3.1-3.1,1.39-3.1,3.1-3.1,3.1,1.39,3.1,3.1Zm-6,0c0,1.6,1.3,2.9,2.9,2.9s2.9-1.3,2.9-2.9-1.3-2.9-2.9-2.9-2.9,1.3-2.9,2.9Z"/>
          <path class="cls-1" d="m39.39,115.83c0,1.41-1.14,2.55-2.55,2.55s-2.55-1.14-2.55-2.55,1.14-2.55,2.55-2.55,2.55,1.14,2.55,2.55Zm-4.9,0c0,1.3,1.05,2.35,2.35,2.35s2.35-1.05,2.35-2.35c0-1.3-1.05-2.35-2.35-2.35s-2.35,1.05-2.35,2.35Z"/>
          <path class="cls-1" d="m38.6,101.43c0,.97-.79,1.76-1.76,1.76s-1.76-.79-1.76-1.76.79-1.75,1.76-1.75,1.76.79,1.76,1.75Zm-3.31,0c0,.86.69,1.55,1.55,1.55s1.55-.69,1.55-1.55-.7-1.55-1.55-1.55-1.55.69-1.55,1.55Z"/>
          <path class="cls-1" d="m40.46,87.03c0,1.99-1.62,3.62-3.62,3.62s-3.62-1.62-3.62-3.62c0-1.99,1.62-3.62,3.62-3.62s3.62,1.62,3.62,3.62Zm-7.02,0c0,1.88,1.53,3.41,3.41,3.41s3.41-1.53,3.41-3.41c0-1.88-1.53-3.41-3.41-3.41s-3.41,1.53-3.41,3.41Z"/>
          <path class="cls-1" d="m39,72.63c0,1.19-.97,2.16-2.16,2.16s-2.16-.97-2.16-2.16c0-1.19.97-2.15,2.16-2.15s2.16.97,2.16,2.15Zm-4.11,0c0,1.08.88,1.95,1.95,1.95s1.95-.87,1.95-1.95-.87-1.95-1.95-1.95-1.95.88-1.95,1.95Z"/>
          <path class="cls-1" d="m38.39,58.23c0,.85-.69,1.54-1.54,1.54s-1.55-.69-1.55-1.54.69-1.55,1.55-1.55,1.54.69,1.54,1.55Zm-2.87,0c0,.73.6,1.33,1.33,1.33s1.33-.6,1.33-1.33-.6-1.33-1.33-1.33-1.33.6-1.33,1.33Z"/>
          <path class="cls-1" d="m38.15,43.83c0,.72-.59,1.31-1.31,1.31s-1.31-.59-1.31-1.31.59-1.31,1.31-1.31,1.31.58,1.31,1.31Zm-2.4,0c0,.6.49,1.09,1.09,1.09s1.09-.49,1.09-1.09-.49-1.09-1.09-1.09-1.09.49-1.09,1.09Z"/>
          <path class="cls-1" d="m39.48,29.43c0,1.45-1.18,2.63-2.63,2.63s-2.64-1.18-2.64-2.63,1.18-2.64,2.64-2.64,2.63,1.18,2.63,2.64Zm-5.04,0c0,1.33,1.08,2.4,2.41,2.4s2.4-1.08,2.4-2.4c0-1.33-1.08-2.41-2.4-2.41s-2.41,1.08-2.41,2.41Z"/>
          <path class="cls-1" d="m40.17,15.03c0,1.83-1.49,3.32-3.32,3.32s-3.33-1.49-3.33-3.32,1.49-3.33,3.33-3.33,3.32,1.49,3.32,3.33Zm-6.41,0c0,1.7,1.38,3.09,3.09,3.09s3.09-1.38,3.09-3.09c0-1.7-1.38-3.09-3.09-3.09s-3.09,1.38-3.09,3.09Z"/>
        </g>
        <g>
          <path class="cls-1" d="m9.52,429.36c0,.3-.24.55-.55.55s-.55-.25-.55-.55c0-.3.25-.55.55-.55s.55.25.55.55Z"/>
          <path class="cls-1" d="m9.42,400.56c0,.25-.2.45-.45.45s-.44-.2-.44-.45.2-.44.44-.44.45.2.45.44Z"/>
          <path class="cls-1" d="m9.39,386.16c0,.23-.19.41-.42.41s-.41-.19-.41-.41.19-.41.41-.41.42.19.42.41Z"/>
          <path class="cls-1" d="m9.4,357.36c0,.24-.19.43-.43.43s-.43-.19-.43-.43c0-.24.2-.43.43-.43s.43.19.43.43Z"/>
          <path class="cls-1" d="m9.45,342.96c0,.26-.21.47-.47.47s-.47-.21-.47-.47.22-.47.47-.47.47.21.47.47Z"/>
          <path class="cls-1" d="m9.5,328.56c0,.29-.23.52-.53.52s-.52-.23-.52-.52.24-.52.52-.52.53.24.53.52Z"/>
          <path class="cls-1" d="m9.61,299.76c0,.35-.29.64-.64.64s-.64-.29-.64-.64.29-.63.64-.63.64.28.64.63Z"/>
          <circle class="cls-1" cx="8.97" cy="270.96" r=".76"/>
          <path class="cls-1" d="m9.79,256.56c0,.45-.37.82-.82.82s-.82-.36-.82-.82.37-.82.82-.82.82.37.82.82Z"/>
          <path class="cls-1" d="m23.62,429.36c0,.4-.32.72-.72.72s-.72-.32-.72-.72.32-.72.72-.72.72.32.72.72Z"/>
          <path class="cls-1" d="m23.59,414.96c0,.38-.31.69-.69.69s-.69-.31-.69-.69.31-.69.69-.69.69.3.69.69Z"/>
          <path class="cls-1" d="m23.56,386.16c0,.36-.29.65-.65.65s-.65-.29-.65-.65.29-.65.65-.65.65.29.65.65Z"/>
          <path class="cls-1" d="m23.56,357.36c0,.36-.29.66-.66.66s-.66-.3-.66-.66.3-.66.66-.66.66.3.66.66Z"/>
          <path class="cls-1" d="m23.68,299.76c0,.43-.35.78-.78.78s-.77-.35-.77-.78.35-.77.77-.77.78.35.78.77Z"/>
          <path class="cls-1" d="m23.73,285.36c0,.45-.37.82-.82.82s-.82-.36-.82-.82.37-.82.82-.82.82.37.82.82Z"/>
          <path class="cls-1" d="m23.83,256.56c0,.51-.41.92-.92.92s-.91-.41-.91-.92.41-.91.91-.91.92.41.92.91Z"/>
          <path class="cls-1" d="m23.88,242.16c0,.53-.44.97-.97.97s-.97-.44-.97-.97.44-.97.97-.97.97.44.97.97Z"/>
          <path class="cls-1" d="m23.93,227.76c0,.56-.46,1.02-1.02,1.02s-1.02-.46-1.02-1.02.46-1.02,1.02-1.02,1.02.46,1.02,1.02Z"/>
          <path class="cls-1" d="m37.76,414.96c0,.5-.41.91-.91.91s-.91-.41-.91-.91.41-.91.91-.91.91.41.91.91Z"/>
          <path class="cls-1" d="m37.74,400.56c0,.5-.4.9-.9.9s-.9-.4-.9-.9.4-.9.9-.9.9.4.9.9Z"/>
          <path class="cls-1" d="m37.74,386.16c0,.49-.4.89-.89.89s-.89-.4-.89-.89.4-.89.89-.89.89.4.89.89Z"/>
          <path class="cls-1" d="m37.75,342.96c0,.5-.41.91-.91.91s-.91-.41-.91-.91.41-.91.91-.91.91.41.91.91Z"/>
          <path class="cls-1" d="m37.77,328.56c0,.51-.41.93-.92.93s-.93-.41-.93-.93c0-.51.42-.93.93-.93s.92.42.92.93Z"/>
          <path class="cls-1" d="m37.82,299.76c0,.54-.44.97-.97.97s-.98-.44-.98-.97.44-.97.98-.97.97.44.97.97Z"/>
          <circle class="cls-1" cx="36.84" cy="285.36" r="1.01" transform="translate(-248.97 318.55) rotate(-89.27)"/>
          <path class="cls-1" d="m37.97,242.16c0,.62-.5,1.12-1.12,1.12s-1.13-.5-1.13-1.12.51-1.12,1.13-1.12,1.12.5,1.12,1.12Z"/>
          <path class="cls-1" d="m9.52,429.36c0,.3-.24.55-.55.55s-.55-.25-.55-.55c0-.3.25-.55.55-.55s.55.25.55.55Z"/>
          <path class="cls-1" d="m9.42,400.56c0,.25-.2.45-.45.45s-.44-.2-.44-.45.2-.44.44-.44.45.2.45.44Z"/>
          <path class="cls-1" d="m9.39,386.16c0,.23-.19.41-.42.41s-.41-.19-.41-.41.19-.41.41-.41.42.19.42.41Z"/>
          <path class="cls-1" d="m9.4,357.36c0,.24-.19.43-.43.43s-.43-.19-.43-.43c0-.24.2-.43.43-.43s.43.19.43.43Z"/>
          <path class="cls-1" d="m9.45,342.96c0,.26-.21.47-.47.47s-.47-.21-.47-.47.22-.47.47-.47.47.21.47.47Z"/>
          <path class="cls-1" d="m9.5,328.56c0,.29-.23.52-.53.52s-.52-.23-.52-.52.24-.52.52-.52.53.24.53.52Z"/>
          <path class="cls-1" d="m9.61,299.76c0,.35-.29.64-.64.64s-.64-.29-.64-.64.29-.63.64-.63.64.28.64.63Z"/>
          <circle class="cls-1" cx="8.97" cy="270.96" r=".76"/>
          <path class="cls-1" d="m9.79,256.56c0,.45-.37.82-.82.82s-.82-.36-.82-.82.37-.82.82-.82.82.37.82.82Z"/>
          <path class="cls-1" d="m23.62,429.36c0,.4-.32.72-.72.72s-.72-.32-.72-.72.32-.72.72-.72.72.32.72.72Z"/>
          <path class="cls-1" d="m23.59,414.96c0,.38-.31.69-.69.69s-.69-.31-.69-.69.31-.69.69-.69.69.3.69.69Z"/>
          <path class="cls-1" d="m23.56,386.16c0,.36-.29.65-.65.65s-.65-.29-.65-.65.29-.65.65-.65.65.29.65.65Z"/>
          <path class="cls-1" d="m23.56,357.36c0,.36-.29.66-.66.66s-.66-.3-.66-.66.3-.66.66-.66.66.3.66.66Z"/>
          <path class="cls-1" d="m23.68,299.76c0,.43-.35.78-.78.78s-.77-.35-.77-.78.35-.77.77-.77.78.35.78.77Z"/>
          <path class="cls-1" d="m23.73,285.36c0,.45-.37.82-.82.82s-.82-.36-.82-.82.37-.82.82-.82.82.37.82.82Z"/>
          <path class="cls-1" d="m23.83,256.56c0,.51-.41.92-.92.92s-.91-.41-.91-.92.41-.91.91-.91.92.41.92.91Z"/>
          <path class="cls-1" d="m23.88,242.16c0,.53-.44.97-.97.97s-.97-.44-.97-.97.44-.97.97-.97.97.44.97.97Z"/>
          <path class="cls-1" d="m23.93,227.76c0,.56-.46,1.02-1.02,1.02s-1.02-.46-1.02-1.02.46-1.02,1.02-1.02,1.02.46,1.02,1.02Z"/>
          <path class="cls-1" d="m37.76,414.96c0,.5-.41.91-.91.91s-.91-.41-.91-.91.41-.91.91-.91.91.41.91.91Z"/>
          <path class="cls-1" d="m37.74,400.56c0,.5-.4.9-.9.9s-.9-.4-.9-.9.4-.9.9-.9.9.4.9.9Z"/>
          <path class="cls-1" d="m37.74,386.16c0,.49-.4.89-.89.89s-.89-.4-.89-.89.4-.89.89-.89.89.4.89.89Z"/>
          <path class="cls-1" d="m37.75,342.96c0,.5-.41.91-.91.91s-.91-.41-.91-.91.41-.91.91-.91.91.41.91.91Z"/>
          <path class="cls-1" d="m37.77,328.56c0,.51-.41.93-.92.93s-.93-.41-.93-.93c0-.51.42-.93.93-.93s.92.42.92.93Z"/>
          <path class="cls-1" d="m37.82,299.76c0,.54-.44.97-.97.97s-.98-.44-.98-.97.44-.97.98-.97.97.44.97.97Z"/>
          <circle class="cls-1" cx="36.84" cy="285.36" r="1.01" transform="translate(-248.97 318.55) rotate(-89.27)"/>
          <path class="cls-1" d="m37.97,242.16c0,.62-.5,1.12-1.12,1.12s-1.13-.5-1.13-1.12.51-1.12,1.13-1.12,1.12.5,1.12,1.12Z"/>
          <path class="cls-1" d="m10.12,429.36c0,.63-.51,1.14-1.14,1.14s-1.14-.51-1.14-1.14.51-1.14,1.14-1.14,1.14.51,1.14,1.14Zm-2.16,0c0,.56.46,1.02,1.02,1.02s1.02-.46,1.02-1.02-.46-1.02-1.02-1.02-1.02.46-1.02,1.02Z"/>
          <path class="cls-1" d="m10.97,414.96c0,1.1-.89,1.99-1.99,1.99s-1.99-.89-1.99-1.99.9-1.99,1.99-1.99,1.99.89,1.99,1.99Zm-3.87,0c0,1.04.84,1.88,1.88,1.88s1.88-.84,1.88-1.88c0-1.04-.84-1.88-1.88-1.88s-1.88.85-1.88,1.88Z"/>
          <path class="cls-1" d="m10.27,400.56c0,.72-.58,1.3-1.3,1.3s-1.3-.58-1.3-1.3.58-1.3,1.3-1.3,1.3.58,1.3,1.3Zm-2.49,0c0,.66.54,1.19,1.19,1.19s1.19-.53,1.19-1.19-.53-1.19-1.19-1.19-1.19.54-1.19,1.19Z"/>
          <path class="cls-1" d="m10.49,386.16c0,.84-.68,1.52-1.52,1.52s-1.52-.68-1.52-1.52.68-1.52,1.52-1.52,1.52.69,1.52,1.52Zm-2.94,0c0,.78.63,1.43,1.42,1.43s1.43-.64,1.43-1.43-.64-1.43-1.43-1.43-1.42.64-1.42,1.43Z"/>
          <path class="cls-1" d="m10.2,371.76c0,.67-.55,1.22-1.22,1.22s-1.22-.55-1.22-1.22.55-1.22,1.22-1.22,1.22.55,1.22,1.22Zm-2.35,0c0,.62.51,1.13,1.13,1.13s1.13-.51,1.13-1.13-.51-1.13-1.13-1.13-1.13.5-1.13,1.13Z"/>
          <path class="cls-1" d="m9.87,357.36c0,.5-.4.9-.89.9s-.89-.4-.89-.9.4-.89.89-.89.89.4.89.89Zm-1.69,0c0,.44.36.8.79.8s.8-.36.8-.8-.36-.8-.8-.8-.79.36-.79.8Z"/>
          <path class="cls-1" d="m9.85,342.96c0,.48-.39.88-.88.88s-.88-.39-.88-.88.39-.88.88-.88.88.39.88.88Zm-1.64,0c0,.42.34.77.77.77s.77-.35.77-.77-.35-.77-.77-.77-.77.35-.77.77Z"/>
          <path class="cls-1" d="m10.78,328.56c0,.99-.81,1.8-1.8,1.8s-1.8-.81-1.8-1.8.81-1.8,1.8-1.8,1.8.81,1.8,1.8Zm-3.48,0c0,.93.75,1.68,1.68,1.68s1.69-.76,1.69-1.68-.75-1.68-1.69-1.68-1.68.75-1.68,1.68Z"/>
          <path class="cls-1" d="m10.35,314.16c0,.76-.62,1.38-1.38,1.38s-1.38-.62-1.38-1.38.62-1.38,1.38-1.38,1.38.62,1.38,1.38Zm-2.63,0c0,.69.56,1.25,1.25,1.25s1.25-.56,1.25-1.25-.56-1.25-1.25-1.25-1.25.56-1.25,1.25Z"/>
          <path class="cls-1" d="m10.81,285.36c0,1.01-.83,1.84-1.84,1.84s-1.84-.83-1.84-1.84.83-1.84,1.84-1.84,1.84.83,1.84,1.84Zm-3.52,0c0,.92.75,1.68,1.68,1.68s1.69-.76,1.69-1.68-.76-1.68-1.69-1.68-1.68.76-1.68,1.68Z"/>
          <path class="cls-1" d="m11.13,256.56c0,1.19-.97,2.16-2.16,2.16s-2.15-.97-2.15-2.16.96-2.15,2.15-2.15,2.16.97,2.16,2.15Zm-4.13,0c0,1.09.88,1.97,1.97,1.97s1.97-.88,1.97-1.97-.89-1.97-1.97-1.97-1.97.89-1.97,1.97Z"/>
          <path class="cls-1" d="m10.51,227.76c0,.84-.69,1.53-1.53,1.53s-1.53-.69-1.53-1.53.69-1.53,1.53-1.53,1.53.69,1.53,1.53Zm-2.84,0c0,.72.59,1.32,1.31,1.32s1.32-.59,1.32-1.32-.59-1.31-1.32-1.31-1.31.59-1.31,1.31Z"/>
          <path class="cls-1" d="m24.26,429.36c0,.75-.61,1.35-1.36,1.35s-1.35-.61-1.35-1.35.61-1.35,1.35-1.35,1.36.61,1.36,1.35Zm-2.55,0c0,.66.54,1.19,1.19,1.19s1.19-.53,1.19-1.19-.54-1.19-1.19-1.19-1.19.53-1.19,1.19Z"/>
          <path class="cls-1" d="m24.18,414.96c0,.7-.57,1.27-1.27,1.27s-1.27-.57-1.27-1.27.57-1.27,1.27-1.27,1.27.57,1.27,1.27Zm-2.38,0c0,.61.5,1.11,1.11,1.11s1.11-.5,1.11-1.11-.5-1.11-1.11-1.11-1.11.5-1.11,1.11Z"/>
          <path class="cls-1" d="m25.75,400.56c0,1.57-1.27,2.85-2.85,2.85s-2.84-1.28-2.84-2.85c0-1.57,1.27-2.84,2.84-2.84s2.85,1.27,2.85,2.84Zm-5.54,0c0,1.49,1.21,2.7,2.7,2.7s2.7-1.21,2.7-2.7-1.21-2.7-2.7-2.7-2.7,1.21-2.7,2.7Z"/>
          <path class="cls-1" d="m24.27,386.16c0,.75-.61,1.36-1.36,1.36s-1.36-.61-1.36-1.36c0-.75.61-1.36,1.36-1.36s1.36.61,1.36,1.36Zm-2.58,0c0,.67.55,1.21,1.21,1.21s1.22-.54,1.22-1.21-.55-1.21-1.22-1.21-1.21.55-1.21,1.21Z"/>
          <path class="cls-1" d="m24.67,371.76c0,.97-.79,1.76-1.76,1.76s-1.76-.79-1.76-1.76.79-1.76,1.76-1.76,1.76.79,1.76,1.76Zm-3.37,0c0,.89.72,1.61,1.61,1.61s1.61-.72,1.61-1.61-.72-1.61-1.61-1.61-1.61.72-1.61,1.61Z"/>
          <path class="cls-1" d="m24.58,357.36c0,.92-.75,1.67-1.67,1.67s-1.66-.75-1.66-1.67c0-.92.75-1.66,1.66-1.66s1.67.75,1.67,1.66Zm-3.18,0c0,.84.68,1.52,1.52,1.52s1.52-.68,1.52-1.52-.68-1.51-1.52-1.51-1.52.68-1.52,1.51Z"/>
          <path class="cls-1" d="m25.26,342.96c0,1.3-1.05,2.35-2.35,2.35s-2.35-1.05-2.35-2.35c0-1.3,1.05-2.35,2.35-2.35s2.35,1.05,2.35,2.35Zm-4.55,0c0,1.21.99,2.2,2.2,2.2s2.2-.99,2.2-2.2-.99-2.2-2.2-2.2-2.2.99-2.2,2.2Z"/>
          <path class="cls-1" d="m24.77,328.56c0,1.02-.83,1.86-1.86,1.86s-1.85-.83-1.85-1.86.83-1.85,1.85-1.85,1.86.83,1.86,1.85Zm-3.56,0c0,.94.76,1.7,1.7,1.7s1.7-.76,1.7-1.7-.76-1.7-1.7-1.7-1.7.76-1.7,1.7Z"/>
          <path class="cls-1" d="m25.15,314.16c0,1.23-1,2.24-2.24,2.24s-2.24-1-2.24-2.24c0-1.24,1.01-2.24,2.24-2.24s2.24,1,2.24,2.24Zm-4.31,0c0,1.14.93,2.07,2.07,2.07s2.07-.93,2.07-2.07-.93-2.07-2.07-2.07-2.07.93-2.07,2.07Z"/>
          <path class="cls-1" d="m26.32,299.76c0,1.88-1.53,3.42-3.41,3.42s-3.42-1.53-3.42-3.42c0-1.88,1.53-3.41,3.42-3.41s3.41,1.53,3.41,3.41Zm-6.65,0c0,1.79,1.45,3.24,3.24,3.24s3.24-1.45,3.24-3.24-1.45-3.24-3.24-3.24-3.24,1.45-3.24,3.24Z"/>
          <path class="cls-1" d="m25.09,285.36c0,1.2-.98,2.18-2.18,2.18s-2.18-.98-2.18-2.18.98-2.18,2.18-2.18,2.18.98,2.18,2.18Zm-4.18,0c0,1.1.9,1.99,2,1.99s2-.89,2-1.99-.9-2-2-2-2,.89-2,2Z"/>
          <path class="cls-1" d="m25.85,270.96c0,1.62-1.32,2.94-2.94,2.94s-2.94-1.32-2.94-2.94c0-1.62,1.32-2.94,2.94-2.94s2.94,1.32,2.94,2.94Zm-5.68,0c0,1.51,1.23,2.74,2.74,2.74s2.74-1.23,2.74-2.74-1.23-2.74-2.74-2.74-2.74,1.23-2.74,2.74Z"/>
          <path class="cls-1" d="m24.6,256.56c0,.94-.76,1.7-1.69,1.7s-1.69-.76-1.69-1.7.76-1.69,1.69-1.69,1.69.76,1.69,1.69Zm-3.18,0c0,.82.66,1.49,1.49,1.49s1.49-.67,1.49-1.49-.67-1.49-1.49-1.49-1.49.67-1.49,1.49Z"/>
          <path class="cls-1" d="m25.4,242.16c0,1.38-1.12,2.49-2.49,2.49s-2.49-1.12-2.49-2.49c0-1.38,1.12-2.49,2.49-2.49s2.49,1.12,2.49,2.49Zm-4.77,0c0,1.25,1.02,2.27,2.27,2.27s2.27-1.02,2.27-2.27c0-1.25-1.02-2.27-2.27-2.27s-2.27,1.02-2.27,2.27Z"/>
          <path class="cls-1" d="m26.17,227.77c0,1.79-1.46,3.26-3.26,3.26s-3.26-1.46-3.26-3.26,1.46-3.26,3.26-3.26,3.26,1.46,3.26,3.26Zm-6.29,0c0,1.67,1.36,3.03,3.03,3.03s3.03-1.36,3.03-3.03c0-1.67-1.36-3.03-3.03-3.03s-3.03,1.36-3.03,3.03Z"/>
          <path class="cls-1" d="m40.44,414.96c0,1.98-1.62,3.59-3.6,3.59s-3.6-1.61-3.6-3.59,1.61-3.6,3.6-3.6,3.6,1.61,3.6,3.6Zm-6.99,0c0,1.87,1.52,3.39,3.39,3.39s3.39-1.52,3.39-3.39c0-1.87-1.52-3.39-3.39-3.39s-3.39,1.52-3.39,3.39Z"/>
          <path class="cls-1" d="m39.22,400.56c0,1.31-1.07,2.38-2.37,2.38s-2.38-1.07-2.38-2.38c0-1.31,1.07-2.37,2.38-2.37s2.37,1.07,2.37,2.37Zm-4.55,0c0,1.2.98,2.17,2.18,2.17s2.17-.97,2.17-2.17-.97-2.17-2.17-2.17-2.18.97-2.18,2.17Z"/>
          <path class="cls-1" d="m39.94,386.16c0,1.71-1.39,3.1-3.1,3.1s-3.1-1.39-3.1-3.1,1.39-3.1,3.1-3.1,3.1,1.39,3.1,3.1Zm-6,0c0,1.6,1.3,2.9,2.9,2.9s2.9-1.3,2.9-2.9-1.3-2.9-2.9-2.9-2.9,1.3-2.9,2.9Z"/>
          <path class="cls-1" d="m39.39,371.76c0,1.41-1.14,2.55-2.55,2.55s-2.55-1.14-2.55-2.55,1.14-2.55,2.55-2.55,2.55,1.14,2.55,2.55Zm-4.9,0c0,1.3,1.05,2.35,2.35,2.35s2.35-1.05,2.35-2.35c0-1.3-1.05-2.35-2.35-2.35s-2.35,1.05-2.35,2.35Z"/>
          <path class="cls-1" d="m38.6,357.36c0,.97-.79,1.76-1.76,1.76s-1.76-.79-1.76-1.76.79-1.75,1.76-1.75,1.76.79,1.76,1.75Zm-3.31,0c0,.86.69,1.55,1.55,1.55s1.55-.69,1.55-1.55-.7-1.55-1.55-1.55-1.55.69-1.55,1.55Z"/>
          <path class="cls-1" d="m40.46,342.96c0,1.99-1.62,3.62-3.62,3.62s-3.62-1.62-3.62-3.62c0-1.99,1.62-3.62,3.62-3.62s3.62,1.62,3.62,3.62Zm-7.02,0c0,1.88,1.53,3.41,3.41,3.41s3.41-1.53,3.41-3.41c0-1.88-1.53-3.41-3.41-3.41s-3.41,1.53-3.41,3.41Z"/>
          <path class="cls-1" d="m39,328.56c0,1.19-.97,2.16-2.16,2.16s-2.16-.97-2.16-2.16c0-1.19.97-2.15,2.16-2.15s2.16.97,2.16,2.15Zm-4.11,0c0,1.08.88,1.95,1.95,1.95s1.95-.87,1.95-1.95-.87-1.95-1.95-1.95-1.95.88-1.95,1.95Z"/>
          <path class="cls-1" d="m38.39,314.16c0,.85-.69,1.54-1.54,1.54s-1.55-.69-1.55-1.54.69-1.55,1.55-1.55,1.54.69,1.54,1.55Zm-2.87,0c0,.73.6,1.33,1.33,1.33s1.33-.6,1.33-1.33-.6-1.33-1.33-1.33-1.33.6-1.33,1.33Z"/>
          <path class="cls-1" d="m38.15,299.76c0,.72-.59,1.31-1.31,1.31s-1.31-.59-1.31-1.31.59-1.31,1.31-1.31,1.31.58,1.31,1.31Zm-2.4,0c0,.6.49,1.09,1.09,1.09s1.09-.49,1.09-1.09-.49-1.09-1.09-1.09-1.09.49-1.09,1.09Z"/>
          <path class="cls-1" d="m39.48,285.36c0,1.45-1.18,2.63-2.63,2.63s-2.64-1.18-2.64-2.63,1.18-2.64,2.64-2.64,2.63,1.18,2.63,2.64Zm-5.04,0c0,1.33,1.08,2.4,2.41,2.4s2.4-1.08,2.4-2.4c0-1.33-1.08-2.41-2.4-2.41s-2.41,1.08-2.41,2.41Z"/>
          <path class="cls-1" d="m40.17,270.96c0,1.83-1.49,3.32-3.32,3.32s-3.33-1.49-3.33-3.32,1.49-3.33,3.33-3.33,3.32,1.49,3.32,3.33Zm-6.41,0c0,1.7,1.38,3.09,3.09,3.09s3.09-1.38,3.09-3.09c0-1.7-1.38-3.09-3.09-3.09s-3.09,1.38-3.09,3.09Z"/>
          <path class="cls-1" d="m41.45,256.56c0,2.54-2.07,4.61-4.61,4.61-2.54,0-4.61-2.07-4.61-4.61,0-2.54,2.07-4.61,4.61-4.61s4.61,2.07,4.61,4.61Zm-8.98,0c0,2.41,1.96,4.37,4.37,4.37s4.36-1.96,4.36-4.37-1.96-4.36-4.36-4.36-4.37,1.96-4.37,4.36Z"/>
          <path class="cls-1" d="m41.76,242.16c0,2.71-2.21,4.91-4.91,4.91s-4.91-2.2-4.91-4.91c0-2.71,2.21-4.91,4.91-4.91s4.91,2.21,4.91,4.91Zm-9.57,0c0,2.57,2.09,4.66,4.66,4.66,2.57,0,4.66-2.09,4.66-4.66,0-2.57-2.09-4.66-4.66-4.66s-4.66,2.09-4.66,4.66Z"/>
          <path class="cls-1" d="m41.18,227.77c0,2.39-1.95,4.33-4.33,4.33s-4.33-1.95-4.33-4.33,1.94-4.34,4.33-4.34,4.33,1.95,4.33,4.34Zm-8.41,0c0,2.24,1.83,4.07,4.07,4.07s4.07-1.83,4.07-4.07-1.82-4.07-4.07-4.07-4.07,1.82-4.07,4.07Z"/>
        </g>
      </g>
    </g>
  </g>
</svg>